<?xml version="1.0" encoding="UTF-8" standalone="no"?>
<!DOCTYPE svg PUBLIC "-//W3C//DTD SVG 1.0//EN" "http://www.w3.org/TR/2001/PR-SVG-20010719/DTD/svg10.dtd">
<svg width="8cm" height="22cm" viewBox="176 49 158 424" xmlns="http://www.w3.org/2000/svg" xmlns:xlink="http://www.w3.org/1999/xlink">
  <g>
    <ellipse style="fill: #ffffff" cx="255.433" cy="79.9663" rx="65.7005" ry="29.0173"/>
    <ellipse style="fill: none; fill-opacity:0; stroke-width: 2; stroke: #000000" cx="255.433" cy="79.9663" rx="65.7005" ry="29.0173"/>
    <text font-size="12.8" style="fill: #000000;text-anchor:middle;font-family:sans-serif;font-style:normal;font-weight:normal" x="255.433" y="84.7663">
      <tspan x="255.433" y="84.7663">fileGeneration.sh</tspan>
    </text>
  </g>
  <g>
    <rect style="fill: #ffffff" x="198.539" y="145.841" width="114.4" height="38"/>
    <rect style="fill: none; fill-opacity:0; stroke-width: 2; stroke: #000000" x="198.539" y="145.841" width="114.4" height="38"/>
    <text font-size="12.8" style="fill: #000000;text-anchor:middle;font-family:sans-serif;font-style:normal;font-weight:normal" x="255.739" y="169.641">
      <tspan x="255.739" y="169.641">Dia? &amp;&amp; Sesion?</tspan>
    </text>
  </g>
  <g>
    <rect style="fill: #ffffff" x="177.023" y="214" width="155.75" height="43"/>
    <rect style="fill: none; fill-opacity:0; stroke-width: 2; stroke: #000000" x="177.023" y="214" width="155.75" height="43"/>
    <text font-size="12.8" style="fill: #000000;text-anchor:middle;font-family:sans-serif;font-style:normal;font-weight:normal" x="254.898" y="240.3">
      <tspan x="254.898" y="240.3">Redirección \Dia\Sesion</tspan>
    </text>
  </g>
  <g>
    <ellipse style="fill: #ffffff" cx="255.388" cy="308.466" rx="50.4179" ry="21.4479"/>
    <ellipse style="fill: none; fill-opacity:0; stroke-width: 2; stroke: #000000" cx="255.388" cy="308.466" rx="50.4179" ry="21.4479"/>
    <text font-size="12.8" style="fill: #000000;text-anchor:middle;font-family:sans-serif;font-style:normal;font-weight:normal" x="255.388" y="313.266">
      <tspan x="255.388" y="313.266">concat.sh</tspan>
    </text>
  </g>
  <g>
    <ellipse style="fill: #ffffff" cx="255.095" cy="379.891" rx="50.6852" ry="22.8792"/>
    <ellipse style="fill: none; fill-opacity:0; stroke-width: 2; stroke: #000000" cx="255.095" cy="379.891" rx="50.6852" ry="22.8792"/>
    <text font-size="12.8" style="fill: #000000;text-anchor:middle;font-family:sans-serif;font-style:normal;font-weight:normal" x="255.095" y="384.691">
      <tspan x="255.095" y="384.691">overlay.sh</tspan>
    </text>
  </g>
  <g>
    <rect style="fill: #ffffff" x="224.488" y="434.046" width="61" height="38"/>
    <rect style="fill: none; fill-opacity:0; stroke-width: 2; stroke: #000000" x="224.488" y="434.046" width="61" height="38"/>
    <text font-size="12.8" style="fill: #000000;text-anchor:middle;font-family:sans-serif;font-style:normal;font-weight:normal" x="254.988" y="457.846">
      <tspan x="254.988" y="457.846">End</tspan>
    </text>
  </g>
  <g>
    <line style="fill: none; fill-opacity:0; stroke-width: 2; stroke: #000000" x1="255.432" y1="108.984" x2="255.657" y2="136.105"/>
    <polygon style="fill: #000000" points="255.719,143.605 250.637,133.647 255.657,136.105 260.636,133.564 "/>
    <polygon style="fill: none; fill-opacity:0; stroke-width: 2; stroke: #000000" points="255.719,143.605 250.637,133.647 255.657,136.105 260.636,133.564 "/>
  </g>
  <g>
    <line style="fill: none; fill-opacity:0; stroke-width: 2; stroke: #000000" x1="255.738" y1="183.841" x2="255.169" y2="204.268"/>
    <polygon style="fill: #000000" points="254.96,211.765 250.241,201.629 255.169,204.268 260.237,201.908 "/>
    <polygon style="fill: none; fill-opacity:0; stroke-width: 2; stroke: #000000" points="254.96,211.765 250.241,201.629 255.169,204.268 260.237,201.908 "/>
  </g>
  <g>
    <line style="fill: none; fill-opacity:0; stroke-width: 2; stroke: #000000" x1="254.898" y1="257" x2="255.229" y2="277.283"/>
    <polygon style="fill: #000000" points="255.352,284.782 250.189,274.865 255.229,277.283 260.188,274.702 "/>
    <polygon style="fill: none; fill-opacity:0; stroke-width: 2; stroke: #000000" points="255.352,284.782 250.189,274.865 255.229,277.283 260.188,274.702 "/>
  </g>
  <g>
    <line style="fill: none; fill-opacity:0; stroke-width: 2; stroke: #000000" x1="255.388" y1="329.914" x2="255.2" y2="347.277"/>
    <polygon style="fill: #000000" points="255.118,354.776 250.227,344.722 255.2,347.277 260.226,344.831 "/>
    <polygon style="fill: none; fill-opacity:0; stroke-width: 2; stroke: #000000" points="255.118,354.776 250.227,344.722 255.2,347.277 260.226,344.831 "/>
  </g>
  <g>
    <line style="fill: none; fill-opacity:0; stroke-width: 2; stroke: #000000" x1="255.094" y1="402.772" x2="255.021" y2="424.31"/>
    <polygon style="fill: #000000" points="254.996,431.81 250.03,421.793 255.021,424.31 260.029,421.827 "/>
    <polygon style="fill: none; fill-opacity:0; stroke-width: 2; stroke: #000000" points="254.996,431.81 250.03,421.793 255.021,424.31 260.029,421.827 "/>
  </g>
</svg>
