<?xml version="1.0" encoding="UTF-8" standalone="no"?>
<!DOCTYPE svg PUBLIC "-//W3C//DTD SVG 1.0//EN" "http://www.w3.org/TR/2001/PR-SVG-20010719/DTD/svg10.dtd">
<svg width="17cm" height="32cm" viewBox="52 -122 338 635" xmlns="http://www.w3.org/2000/svg" xmlns:xlink="http://www.w3.org/1999/xlink">
  <g>
    <rect style="fill: #ffffff" x="123.05" y="143.5" width="143.15" height="54"/>
    <rect style="fill: none; fill-opacity:0; stroke-width: 2; stroke: #000000" x="123.05" y="143.5" width="143.15" height="54"/>
    <text font-size="12.8" style="fill: #000000;text-anchor:middle;font-family:sans-serif;font-style:normal;font-weight:normal" x="194.625" y="167.3">
      <tspan x="194.625" y="167.3">Interfaz introduccion </tspan>
      <tspan x="194.625" y="183.3">de datos</tspan>
    </text>
  </g>
  <g>
    <polygon style="fill: #ffffff" points="194.536,226.946 287.915,286.123 194.536,345.3 101.156,286.123 "/>
    <polygon style="fill: none; fill-opacity:0; stroke-width: 2; stroke: #000000" points="194.536,226.946 287.915,286.123 194.536,345.3 101.156,286.123 "/>
    <text font-size="12.8" style="fill: #000000;text-anchor:middle;font-family:sans-serif;font-style:normal;font-weight:normal" x="194.536" y="282.923">
      <tspan x="194.536" y="282.923">Confirmación del</tspan>
      <tspan x="194.536" y="298.923">usuario</tspan>
    </text>
  </g>
  <g>
    <polygon style="fill: #ffffff" points="194.932,-38.9901 299.394,25.5818 194.932,90.1536 90.4691,25.5818 "/>
    <polygon style="fill: none; fill-opacity:0; stroke-width: 2; stroke: #000000" points="194.932,-38.9901 299.394,25.5818 194.932,90.1536 90.4691,25.5818 "/>
    <text font-size="12.8" style="fill: #000000;text-anchor:middle;font-family:sans-serif;font-style:normal;font-weight:normal" x="194.932" y="22.3818">
      <tspan x="194.932" y="22.3818">¿1ª vez q se ejecuta</tspan>
      <tspan x="194.932" y="38.3818">script?</tspan>
    </text>
  </g>
  <g>
    <rect style="fill: #ffffff" x="322" y="94.8184" width="67.85" height="54"/>
    <rect style="fill: none; fill-opacity:0; stroke-width: 2; stroke: #000000" x="322" y="94.8184" width="67.85" height="54"/>
    <text font-size="12.8" style="fill: #000000;text-anchor:middle;font-family:sans-serif;font-style:normal;font-weight:normal" x="355.925" y="118.618">
      <tspan x="355.925" y="118.618">Se crea </tspan>
      <tspan x="355.925" y="134.618">carpeta</tspan>
    </text>
  </g>
  <g>
    <rect style="fill: #ffffff" x="127.014" y="383.386" width="135.2" height="54"/>
    <rect style="fill: none; fill-opacity:0; stroke-width: 2; stroke: #000000" x="127.014" y="383.386" width="135.2" height="54"/>
    <text font-size="12.8" style="fill: #000000;text-anchor:middle;font-family:sans-serif;font-style:normal;font-weight:normal" x="194.614" y="407.186">
      <tspan x="194.614" y="407.186">Se guarda .txt</tspan>
      <tspan x="194.614" y="423.186">con la configuracion</tspan>
    </text>
  </g>
  <g>
    <rect style="fill: #ffffff" x="172.94" y="474.002" width="43.45" height="38"/>
    <rect style="fill: none; fill-opacity:0; stroke-width: 2; stroke: #000000" x="172.94" y="474.002" width="43.45" height="38"/>
    <text font-size="12.8" style="fill: #000000;text-anchor:middle;font-family:sans-serif;font-style:normal;font-weight:normal" x="194.665" y="497.802">
      <tspan x="194.665" y="497.802">End</tspan>
    </text>
  </g>
  <g>
    <line style="fill: none; fill-opacity:0; stroke-width: 2; stroke: #000000" x1="194.826" y1="-77.1495" x2="194.905" y2="-48.7261"/>
    <polygon style="fill: #000000" points="194.925,-41.2262 189.898,-51.2122 194.905,-48.7261 199.898,-51.24 "/>
    <polygon style="fill: none; fill-opacity:0; stroke-width: 2; stroke: #000000" points="194.925,-41.2262 189.898,-51.2122 194.905,-48.7261 199.898,-51.24 "/>
  </g>
  <g>
    <line style="fill: none; fill-opacity:0; stroke-width: 2; stroke: #000000" x1="194.932" y1="90.1536" x2="194.681" y2="133.764"/>
    <polygon style="fill: #000000" points="194.638,141.264 189.695,131.235 194.681,133.764 199.695,131.293 "/>
    <polygon style="fill: none; fill-opacity:0; stroke-width: 2; stroke: #000000" points="194.638,141.264 189.695,131.235 194.681,133.764 199.695,131.293 "/>
  </g>
  <g>
    <line style="fill: none; fill-opacity:0; stroke-width: 2; stroke: #000000" x1="194.625" y1="197.5" x2="194.565" y2="217.21"/>
    <polygon style="fill: #000000" points="194.543,224.71 189.573,214.695 194.565,217.21 199.573,214.725 "/>
    <polygon style="fill: none; fill-opacity:0; stroke-width: 2; stroke: #000000" points="194.543,224.71 189.573,214.695 194.565,217.21 199.573,214.725 "/>
  </g>
  <g>
    <polyline style="fill: none; fill-opacity:0; stroke-width: 2; stroke: #000000" points="299.394,25.5818 299.394,25.5731 355.926,25.5731 355.926,85.0823 "/>
    <polygon style="fill: #000000" points="355.926,92.5823 350.926,82.5823 355.926,85.0823 360.926,82.5823 "/>
    <polygon style="fill: none; fill-opacity:0; stroke-width: 2; stroke: #000000" points="355.926,92.5823 350.926,82.5823 355.926,85.0823 360.926,82.5823 "/>
  </g>
  <g>
    <polyline style="fill: none; fill-opacity:0; stroke-width: 2; stroke: #000000" points="355.925,148.818 355.925,170.5 275.936,170.5 "/>
    <polygon style="fill: #000000" points="268.436,170.5 278.436,165.5 275.936,170.5 278.436,175.5 "/>
    <polygon style="fill: none; fill-opacity:0; stroke-width: 2; stroke: #000000" points="268.436,170.5 278.436,165.5 275.936,170.5 278.436,175.5 "/>
  </g>
  <g>
    <line style="fill: none; fill-opacity:0; stroke-width: 2; stroke: #000000" x1="194.536" y1="345.3" x2="194.594" y2="373.65"/>
    <polygon style="fill: #000000" points="194.61,381.15 189.589,371.16 194.594,373.65 199.589,371.14 "/>
    <polygon style="fill: none; fill-opacity:0; stroke-width: 2; stroke: #000000" points="194.61,381.15 189.589,371.16 194.594,373.65 199.589,371.14 "/>
  </g>
  <g>
    <line style="fill: none; fill-opacity:0; stroke-width: 2; stroke: #000000" x1="194.614" y1="437.386" x2="194.651" y2="464.266"/>
    <polygon style="fill: #000000" points="194.662,471.766 189.648,461.773 194.651,464.266 199.648,461.759 "/>
    <polygon style="fill: none; fill-opacity:0; stroke-width: 2; stroke: #000000" points="194.662,471.766 189.648,461.773 194.651,464.266 199.648,461.759 "/>
  </g>
  <polyline style="fill: none; fill-opacity:0; stroke-width: 2; stroke: #000000" points="101.156,286.123 55.3202,286.164 "/>
  <g>
    <polyline style="fill: none; fill-opacity:0; stroke-width: 2; stroke: #000000" points="55.3202,285.744 53.975,285.744 53.975,170.5 113.314,170.5 "/>
    <polygon style="fill: #000000" points="120.814,170.5 110.814,175.5 113.314,170.5 110.814,165.5 "/>
    <polygon style="fill: none; fill-opacity:0; stroke-width: 2; stroke: #000000" points="120.814,170.5 110.814,175.5 113.314,170.5 110.814,165.5 "/>
  </g>
  <g>
    <ellipse style="fill: #ffffff" cx="194.826" cy="-98.7088" rx="73.1545" ry="21.5593"/>
    <ellipse style="fill: none; fill-opacity:0; stroke-width: 2; stroke: #000000" cx="194.826" cy="-98.7088" rx="73.1545" ry="21.5593"/>
    <text font-size="12.8" style="fill: #000000;text-anchor:middle;font-family:sans-serif;font-style:normal;font-weight:normal" x="194.826" y="-93.9088">
      <tspan x="194.826" y="-93.9088">saveSession.sh</tspan>
    </text>
  </g>
  <text font-size="12.8" style="fill: #000000;text-anchor:start;font-family:sans-serif;font-style:normal;font-weight:normal" x="305.05" y="21.5644">
    <tspan x="305.05" y="21.5644">Si</tspan>
  </text>
  <text font-size="12.8" style="fill: #000000;text-anchor:start;font-family:sans-serif;font-style:normal;font-weight:normal" x="200.471" y="107.192">
    <tspan x="200.471" y="107.192">No</tspan>
  </text>
  <text font-size="12.8" style="fill: #000000;text-anchor:start;font-family:sans-serif;font-style:normal;font-weight:normal" x="194.932" y="25.5818">
    <tspan x="194.932" y="25.5818"></tspan>
  </text>
  <text font-size="12.8" style="fill: #000000;text-anchor:start;font-family:sans-serif;font-style:normal;font-weight:normal" x="201.371" y="358.018">
    <tspan x="201.371" y="358.018">Si</tspan>
  </text>
  <text font-size="12.8" style="fill: #000000;text-anchor:start;font-family:sans-serif;font-style:normal;font-weight:normal" x="87.801" y="275.074">
    <tspan x="87.801" y="275.074">No</tspan>
  </text>
  <text font-size="12.7998" style="fill: #000000;text-anchor:start;font-family:sans-serif;font-style:normal;font-weight:normal" x="194.536" y="286.123">
    <tspan x="194.536" y="286.123"></tspan>
  </text>
  <text font-size="12.7998" style="fill: #000000;text-anchor:start;font-family:sans-serif;font-style:normal;font-weight:normal" x="194.932" y="25.5818">
    <tspan x="194.932" y="25.5818"></tspan>
  </text>
</svg>
