<?xml version="1.0" encoding="UTF-8" standalone="no"?>
<!DOCTYPE svg PUBLIC "-//W3C//DTD SVG 1.0//EN" "http://www.w3.org/TR/2001/PR-SVG-20010719/DTD/svg10.dtd">
<svg width="37cm" height="37cm" viewBox="62 41 725 728" xmlns="http://www.w3.org/2000/svg" xmlns:xlink="http://www.w3.org/1999/xlink">
  <g>
    <rect style="fill: #ffffff" x="248" y="42" width="39" height="38"/>
    <rect style="fill: none; fill-opacity:0; stroke-width: 2; stroke: #000000" x="248" y="42" width="39" height="38"/>
    <text font-size="12.8" style="fill: #000000;text-anchor:middle;font-family:sans-serif;font-style:normal;font-weight:normal" x="267.5" y="65.8">
      <tspan x="267.5" y="65.8">/</tspan>
    </text>
  </g>
  <g>
    <rect style="fill: #ffffff" x="63.95" y="162" width="44.1" height="38"/>
    <rect style="fill: none; fill-opacity:0; stroke-width: 2; stroke: #000000" x="63.95" y="162" width="44.1" height="38"/>
    <text font-size="12.8" style="fill: #000000;text-anchor:middle;font-family:sans-serif;font-style:normal;font-weight:normal" x="86" y="185.8">
      <tspan x="86" y="185.8">/bin</tspan>
    </text>
  </g>
  <g>
    <rect style="fill: #ffffff" x="355.85" y="155.3" width="58.5" height="38"/>
    <rect style="fill: none; fill-opacity:0; stroke-width: 2; stroke: #000000" x="355.85" y="155.3" width="58.5" height="38"/>
    <text font-size="12.8" style="fill: #000000;text-anchor:middle;font-family:sans-serif;font-style:normal;font-weight:normal" x="385.1" y="179.1">
      <tspan x="385.1" y="179.1">/home</tspan>
    </text>
  </g>
  <g>
    <rect style="fill: #ffffff" x="146.35" y="159.6" width="52.5" height="38"/>
    <rect style="fill: none; fill-opacity:0; stroke-width: 2; stroke: #000000" x="146.35" y="159.6" width="52.5" height="38"/>
    <text font-size="12.8" style="fill: #000000;text-anchor:middle;font-family:sans-serif;font-style:normal;font-weight:normal" x="172.6" y="183.4">
      <tspan x="172.6" y="183.4">/sbin</tspan>
    </text>
  </g>
  <g>
    <rect style="fill: #ffffff" x="225.05" y="157.9" width="39.9" height="38"/>
    <rect style="fill: none; fill-opacity:0; stroke-width: 2; stroke: #000000" x="225.05" y="157.9" width="39.9" height="38"/>
    <text font-size="12.8" style="fill: #000000;text-anchor:middle;font-family:sans-serif;font-style:normal;font-weight:normal" x="245" y="181.7">
      <tspan x="245" y="181.7">/lib</tspan>
    </text>
  </g>
  <g>
    <rect style="fill: #ffffff" x="286.626" y="158.2" width="43.95" height="38"/>
    <rect style="fill: none; fill-opacity:0; stroke-width: 2; stroke: #000000" x="286.626" y="158.2" width="43.95" height="38"/>
    <text font-size="12.8" style="fill: #000000;text-anchor:middle;font-family:sans-serif;font-style:normal;font-weight:normal" x="308.601" y="182">
      <tspan x="308.601" y="182">/etc</tspan>
    </text>
  </g>
  <g>
    <line style="fill: none; fill-opacity:0; stroke-width: 2; stroke: #000000" x1="257.75" y1="80" x2="94.7861" y2="157.805"/>
    <polygon style="fill: #000000" points="88.0179,161.037 94.8879,152.216 94.7861,157.805 99.1964,161.24 "/>
    <polygon style="fill: none; fill-opacity:0; stroke-width: 2; stroke: #000000" points="88.0179,161.037 94.8879,152.216 94.7861,157.805 99.1964,161.24 "/>
  </g>
  <g>
    <line style="fill: none; fill-opacity:0; stroke-width: 2; stroke: #000000" x1="257.75" y1="80" x2="179.712" y2="152.951"/>
    <polygon style="fill: #000000" points="174.233,158.073 178.124,147.591 179.712,152.951 184.953,154.897 "/>
    <polygon style="fill: none; fill-opacity:0; stroke-width: 2; stroke: #000000" points="174.233,158.073 178.124,147.591 179.712,152.951 184.953,154.897 "/>
  </g>
  <g>
    <line style="fill: none; fill-opacity:0; stroke-width: 2; stroke: #000000" x1="267.5" y1="80" x2="247.702" y2="148.546"/>
    <polygon style="fill: #000000" points="245.62,155.752 243.592,144.757 247.702,148.546 253.199,147.532 "/>
    <polygon style="fill: none; fill-opacity:0; stroke-width: 2; stroke: #000000" points="245.62,155.752 243.592,144.757 247.702,148.546 253.199,147.532 "/>
  </g>
  <g>
    <line style="fill: none; fill-opacity:0; stroke-width: 2; stroke: #000000" x1="267.5" y1="80" x2="304.07" y2="149.582"/>
    <polygon style="fill: #000000" points="307.56,156.221 298.481,149.695 304.07,149.582 307.333,145.043 "/>
    <polygon style="fill: none; fill-opacity:0; stroke-width: 2; stroke: #000000" points="307.56,156.221 298.481,149.695 304.07,149.582 307.333,145.043 "/>
  </g>
  <g>
    <line style="fill: none; fill-opacity:0; stroke-width: 2; stroke: #000000" x1="277.25" y1="80" x2="377.117" y2="149.726"/>
    <polygon style="fill: #000000" points="383.267,154.02 372.205,152.395 377.117,149.726 377.93,144.196 "/>
    <polygon style="fill: none; fill-opacity:0; stroke-width: 2; stroke: #000000" points="383.267,154.02 372.205,152.395 377.117,149.726 377.93,144.196 "/>
  </g>
  <g>
    <rect style="fill: #ffffff" x="284.05" y="324.3" width="44.1" height="38"/>
    <rect style="fill: none; fill-opacity:0; stroke-width: 2; stroke: #000000" x="284.05" y="324.3" width="44.1" height="38"/>
    <text font-size="12.8" style="fill: #000000;text-anchor:middle;font-family:sans-serif;font-style:normal;font-weight:normal" x="306.1" y="348.1">
      <tspan x="306.1" y="348.1">/bin</tspan>
    </text>
  </g>
  <g>
    <rect style="fill: #ffffff" x="364.426" y="229" width="44.6" height="38"/>
    <rect style="fill: none; fill-opacity:0; stroke-width: 2; stroke: #000000" x="364.426" y="229" width="44.6" height="38"/>
    <text font-size="12.8" style="fill: #000000;text-anchor:middle;font-family:sans-serif;font-style:normal;font-weight:normal" x="386.726" y="252.8">
      <tspan x="386.726" y="252.8">/usr</tspan>
    </text>
  </g>
  <g>
    <rect style="fill: #ffffff" x="376.1" y="326" width="75.8" height="38"/>
    <rect style="fill: none; fill-opacity:0; stroke-width: 2; stroke: #000000" x="376.1" y="326" width="75.8" height="38"/>
    <text font-size="12.8" style="fill: #000000;text-anchor:middle;font-family:sans-serif;font-style:normal;font-weight:normal" x="414" y="349.8">
      <tspan x="414" y="349.8">/Proyecto</tspan>
    </text>
  </g>
  <g>
    <rect style="fill: #ffffff" x="456.174" y="155.6" width="44.85" height="38"/>
    <rect style="fill: none; fill-opacity:0; stroke-width: 2; stroke: #000000" x="456.174" y="155.6" width="44.85" height="38"/>
    <text font-size="12.8" style="fill: #000000;text-anchor:middle;font-family:sans-serif;font-style:normal;font-weight:normal" x="478.599" y="179.4">
      <tspan x="478.599" y="179.4">/var</tspan>
    </text>
  </g>
  <g>
    <line style="fill: none; fill-opacity:0; stroke-width: 2; stroke: #000000" x1="277.25" y1="80" x2="469.485" y2="152.178"/>
    <polygon style="fill: #000000" points="476.507,154.814 465.387,155.98 469.485,152.178 468.902,146.618 "/>
    <polygon style="fill: none; fill-opacity:0; stroke-width: 2; stroke: #000000" points="476.507,154.814 465.387,155.98 469.485,152.178 468.902,146.618 "/>
  </g>
  <g>
    <rect style="fill: #ffffff" x="314" y="412.75" width="59" height="38"/>
    <rect style="fill: none; fill-opacity:0; stroke-width: 2; stroke: #000000" x="314" y="412.75" width="59" height="38"/>
    <text font-size="12.8" style="fill: #000000;text-anchor:middle;font-family:sans-serif;font-style:normal;font-weight:normal" x="343.5" y="436.55">
      <tspan x="343.5" y="436.55">/Code</tspan>
    </text>
  </g>
  <g>
    <rect style="fill: #ffffff" x="424.5" y="412.75" width="96" height="38"/>
    <rect style="fill: none; fill-opacity:0; stroke-width: 2; stroke: #000000" x="424.5" y="412.75" width="96" height="38"/>
    <text font-size="12.8" style="fill: #000000;text-anchor:middle;font-family:sans-serif;font-style:normal;font-weight:normal" x="472.5" y="436.55">
      <tspan x="472.5" y="436.55">/Grabaciones</tspan>
    </text>
  </g>
  <g>
    <line style="fill: none; fill-opacity:0; stroke-width: 2; stroke: #000000" x1="385.1" y1="193.3" x2="386.283" y2="219.274"/>
    <polygon style="fill: #000000" points="386.624,226.766 381.174,217.004 386.283,219.274 391.164,216.549 "/>
    <polygon style="fill: none; fill-opacity:0; stroke-width: 2; stroke: #000000" points="386.624,226.766 381.174,217.004 386.283,219.274 391.164,216.549 "/>
  </g>
  <g>
    <line style="fill: none; fill-opacity:0; stroke-width: 2; stroke: #000000" x1="386.726" y1="267" x2="314.036" y2="318.66"/>
    <polygon style="fill: #000000" points="307.923,323.005 313.177,313.136 314.036,318.66 318.97,321.287 "/>
    <polygon style="fill: none; fill-opacity:0; stroke-width: 2; stroke: #000000" points="307.923,323.005 313.177,313.136 314.036,318.66 318.97,321.287 "/>
  </g>
  <g>
    <line style="fill: none; fill-opacity:0; stroke-width: 2; stroke: #000000" x1="386.726" y1="267" x2="409.915" y2="317.163"/>
    <polygon style="fill: #000000" points="413.062,323.97 404.327,316.991 409.915,317.163 413.404,312.795 "/>
    <polygon style="fill: none; fill-opacity:0; stroke-width: 2; stroke: #000000" points="413.062,323.97 404.327,316.991 409.915,317.163 413.404,312.795 "/>
  </g>
  <g>
    <line style="fill: none; fill-opacity:0; stroke-width: 2; stroke: #000000" x1="414" y1="364" x2="465.021" y2="406.517"/>
    <polygon style="fill: #000000" points="470.782,411.319 459.899,408.758 465.021,406.517 466.301,401.076 "/>
    <polygon style="fill: none; fill-opacity:0; stroke-width: 2; stroke: #000000" points="470.782,411.319 459.899,408.758 465.021,406.517 466.301,401.076 "/>
  </g>
  <g>
    <line style="fill: none; fill-opacity:0; stroke-width: 2; stroke: #000000" x1="414" y1="364" x2="351.508" y2="407.213"/>
    <polygon style="fill: #000000" points="345.339,411.478 350.72,401.678 351.508,407.213 356.408,409.903 "/>
    <polygon style="fill: none; fill-opacity:0; stroke-width: 2; stroke: #000000" points="345.339,411.478 350.72,401.678 351.508,407.213 356.408,409.903 "/>
  </g>
  <g>
    <rect style="fill: #ffffff" x="266.772" y="504.814" width="86.05" height="38"/>
    <rect style="fill: none; fill-opacity:0; stroke-width: 2; stroke: #000000" x="266.772" y="504.814" width="86.05" height="38"/>
    <text font-size="12.8" style="fill: #000000;text-anchor:middle;font-family:sans-serif;font-style:normal;font-weight:normal" x="309.797" y="528.614">
      <tspan x="309.797" y="528.614">/27oct2014</tspan>
    </text>
  </g>
  <text font-size="12.8" style="fill: #000000;text-anchor:start;font-family:sans-serif;font-style:normal;font-weight:normal" x="309.796" y="523.814">
    <tspan x="309.796" y="523.814"></tspan>
  </text>
  <g>
    <rect style="fill: #ffffff" x="430.372" y="504.114" width="86.05" height="38"/>
    <rect style="fill: none; fill-opacity:0; stroke-width: 2; stroke: #000000" x="430.372" y="504.114" width="86.05" height="38"/>
    <text font-size="12.8" style="fill: #000000;text-anchor:middle;font-family:sans-serif;font-style:normal;font-weight:normal" x="473.397" y="527.914">
      <tspan x="473.397" y="527.914">/28oct2014</tspan>
    </text>
  </g>
  <g>
    <rect style="fill: #ffffff" x="596.972" y="500.414" width="86.05" height="38"/>
    <rect style="fill: none; fill-opacity:0; stroke-width: 2; stroke: #000000" x="596.972" y="500.414" width="86.05" height="38"/>
    <text font-size="12.8" style="fill: #000000;text-anchor:middle;font-family:sans-serif;font-style:normal;font-weight:normal" x="639.997" y="524.214">
      <tspan x="639.997" y="524.214">/29oct2014</tspan>
    </text>
  </g>
  <g>
    <line style="fill: none; fill-opacity:0; stroke-width: 2; stroke: #000000" x1="448.5" y1="450.75" x2="318.867" y2="501.278"/>
    <polygon style="fill: #000000" points="311.879,504.002 319.381,495.712 318.867,501.278 323.012,505.029 "/>
    <polygon style="fill: none; fill-opacity:0; stroke-width: 2; stroke: #000000" points="311.879,504.002 319.381,495.712 318.867,501.278 323.012,505.029 "/>
  </g>
  <g>
    <line style="fill: none; fill-opacity:0; stroke-width: 2; stroke: #000000" x1="472.696" y1="451.747" x2="473.105" y2="493.381"/>
    <polygon style="fill: #000000" points="473.179,500.881 468.081,490.931 473.105,493.381 478.08,490.832 "/>
    <polygon style="fill: none; fill-opacity:0; stroke-width: 2; stroke: #000000" points="473.179,500.881 468.081,490.931 473.105,493.381 478.08,490.832 "/>
  </g>
  <g>
    <line style="fill: none; fill-opacity:0; stroke-width: 2; stroke: #000000" x1="496.5" y1="450.75" x2="630.795" y2="497.23"/>
    <polygon style="fill: #000000" points="637.883,499.683 626.798,501.137 630.795,497.23 630.068,491.687 "/>
    <polygon style="fill: none; fill-opacity:0; stroke-width: 2; stroke: #000000" points="637.883,499.683 626.798,501.137 630.795,497.23 630.068,491.687 "/>
  </g>
  <g>
    <rect style="fill: #ffffff" x="386.648" y="585.036" width="59.45" height="38"/>
    <rect style="fill: none; fill-opacity:0; stroke-width: 2; stroke: #000000" x="386.648" y="585.036" width="59.45" height="38"/>
    <text font-size="12.8" style="fill: #000000;text-anchor:middle;font-family:sans-serif;font-style:normal;font-weight:normal" x="416.373" y="608.836">
      <tspan x="416.373" y="608.836">/20:20</tspan>
    </text>
  </g>
  <g>
    <rect style="fill: #ffffff" x="498.194" y="584.812" width="59.45" height="38"/>
    <rect style="fill: none; fill-opacity:0; stroke-width: 2; stroke: #000000" x="498.194" y="584.812" width="59.45" height="38"/>
    <text font-size="12.8" style="fill: #000000;text-anchor:middle;font-family:sans-serif;font-style:normal;font-weight:normal" x="527.919" y="608.612">
      <tspan x="527.919" y="608.612">/20:30</tspan>
    </text>
  </g>
  <g>
    <line style="fill: none; fill-opacity:0; stroke-width: 2; stroke: #000000" x1="451.884" y1="542.114" x2="422.578" y2="577.535"/>
    <polygon style="fill: #000000" points="417.797,583.313 420.32,572.421 422.578,577.535 428.024,578.796 "/>
    <polygon style="fill: none; fill-opacity:0; stroke-width: 2; stroke: #000000" points="417.797,583.313 420.32,572.421 422.578,577.535 428.024,578.796 "/>
  </g>
  <g>
    <line style="fill: none; fill-opacity:0; stroke-width: 2; stroke: #000000" x1="490.967" y1="542.997" x2="521.471" y2="577.516"/>
    <polygon style="fill: #000000" points="526.437,583.136 516.069,578.954 521.471,577.516 523.562,572.332 "/>
    <polygon style="fill: none; fill-opacity:0; stroke-width: 2; stroke: #000000" points="526.437,583.136 516.069,578.954 521.471,577.516 523.562,572.332 "/>
  </g>
  <text font-size="12.8" style="fill: #000000;text-anchor:start;font-family:sans-serif;font-style:normal;font-weight:normal" x="527.918" y="603.812">
    <tspan x="527.918" y="603.812"></tspan>
  </text>
  <g>
    <path style="fill: #ffffff" d="M 349.536 669.398 L 416.136,669.398 L 429.456,680.398 L 416.136,691.398 L 349.536,691.398 L 336.216,680.398 L 349.536,669.398z"/>
    <path style="fill: none; fill-opacity:0; stroke-width: 2; stroke: #000000" d="M 349.536 669.398 L 416.136,669.398 L 429.456,680.398 L 416.136,691.398 L 349.536,691.398 L 336.216,680.398 L 349.536,669.398"/>
    <text font-size="12.8" style="fill: #000000;text-anchor:middle;font-family:sans-serif;font-style:normal;font-weight:normal" x="382.836" y="685.198">
      <tspan x="382.836" y="685.198">Audio.mp3</tspan>
    </text>
  </g>
  <g>
    <path style="fill: #ffffff" d="M 404.298 709.826 L 490.548,709.826 L 507.798,720.826 L 490.548,731.826 L 404.298,731.826 L 387.048,720.826 L 404.298,709.826z"/>
    <path style="fill: none; fill-opacity:0; stroke-width: 2; stroke: #000000" d="M 404.298 709.826 L 490.548,709.826 L 507.798,720.826 L 490.548,731.826 L 404.298,731.826 L 387.048,720.826 L 404.298,709.826"/>
    <text font-size="12.8" style="fill: #000000;text-anchor:middle;font-family:sans-serif;font-style:normal;font-weight:normal" x="447.423" y="725.626">
      <tspan x="447.423" y="725.626">Pantalla1.mp4</tspan>
    </text>
  </g>
  <g>
    <path style="fill: #ffffff" d="M 484.766 745.386 L 571.016,745.386 L 588.266,756.386 L 571.016,767.386 L 484.766,767.386 L 467.516,756.386 L 484.766,745.386z"/>
    <path style="fill: none; fill-opacity:0; stroke-width: 2; stroke: #000000" d="M 484.766 745.386 L 571.016,745.386 L 588.266,756.386 L 571.016,767.386 L 484.766,767.386 L 467.516,756.386 L 484.766,745.386"/>
    <text font-size="12.8" style="fill: #000000;text-anchor:middle;font-family:sans-serif;font-style:normal;font-weight:normal" x="527.891" y="761.186">
      <tspan x="527.891" y="761.186">Pantalla2.mp4</tspan>
    </text>
  </g>
  <g>
    <path style="fill: #ffffff" d="M 632.524 676.778 L 759.924,676.778 L 785.404,687.778 L 759.924,698.778 L 632.524,698.778 L 607.044,687.778 L 632.524,676.778z"/>
    <path style="fill: none; fill-opacity:0; stroke-width: 2; stroke: #000000" d="M 632.524 676.778 L 759.924,676.778 L 785.404,687.778 L 759.924,698.778 L 632.524,698.778 L 607.044,687.778 L 632.524,676.778"/>
    <text font-size="12.8" style="fill: #000000;text-anchor:middle;font-family:sans-serif;font-style:normal;font-weight:normal" x="696.224" y="692.578">
      <tspan x="696.224" y="692.578">Pantalla1+Audio.mp4</tspan>
    </text>
  </g>
  <g>
    <path style="fill: #ffffff" d="M 570.288 709.936 L 656.538,709.936 L 673.788,720.936 L 656.538,731.936 L 570.288,731.936 L 553.038,720.936 L 570.288,709.936z"/>
    <path style="fill: none; fill-opacity:0; stroke-width: 2; stroke: #000000" d="M 570.288 709.936 L 656.538,709.936 L 673.788,720.936 L 656.538,731.936 L 570.288,731.936 L 553.038,720.936 L 570.288,709.936"/>
    <text font-size="12.8" style="fill: #000000;text-anchor:middle;font-family:sans-serif;font-style:normal;font-weight:normal" x="613.413" y="725.736">
      <tspan x="613.413" y="725.736">Overlay.mp4</tspan>
    </text>
  </g>
  <g>
    <line style="fill: none; fill-opacity:0; stroke-width: 2; stroke: #000000" x1="513.056" y1="622.812" x2="392.003" y2="666.118"/>
    <polygon style="fill: #000000" points="384.941,668.645 392.673,660.569 392.003,666.118 396.041,669.984 "/>
    <polygon style="fill: none; fill-opacity:0; stroke-width: 2; stroke: #000000" points="384.941,668.645 392.673,660.569 392.003,666.118 396.041,669.984 "/>
  </g>
  <g>
    <line style="fill: none; fill-opacity:0; stroke-width: 2; stroke: #000000" x1="513.056" y1="622.812" x2="453.287" y2="702.053"/>
    <polygon style="fill: #000000" points="448.771,708.041 450.801,697.046 453.287,702.053 458.784,703.068 "/>
    <polygon style="fill: none; fill-opacity:0; stroke-width: 2; stroke: #000000" points="448.771,708.041 450.801,697.046 453.287,702.053 458.784,703.068 "/>
  </g>
  <g>
    <line style="fill: none; fill-opacity:0; stroke-width: 2; stroke: #000000" x1="527.918" y1="622.812" x2="527.892" y2="735.65"/>
    <polygon style="fill: #000000" points="527.891,743.15 522.893,733.149 527.892,735.65 532.893,733.151 "/>
    <polygon style="fill: none; fill-opacity:0; stroke-width: 2; stroke: #000000" points="527.891,743.15 522.893,733.149 527.892,735.65 532.893,733.151 "/>
  </g>
  <g>
    <line style="fill: none; fill-opacity:0; stroke-width: 2; stroke: #000000" x1="542.782" y1="622.812" x2="687.039" y2="673.548"/>
    <polygon style="fill: #000000" points="694.115,676.036 683.022,677.435 687.039,673.548 686.34,668.002 "/>
    <polygon style="fill: none; fill-opacity:0; stroke-width: 2; stroke: #000000" points="694.115,676.036 683.022,677.435 687.039,673.548 686.34,668.002 "/>
  </g>
  <g>
    <line style="fill: none; fill-opacity:0; stroke-width: 2; stroke: #000000" x1="527.918" y1="622.812" x2="606.593" y2="702.987"/>
    <polygon style="fill: #000000" points="611.846,708.34 601.273,704.704 606.593,702.987 608.411,697.7 "/>
    <polygon style="fill: none; fill-opacity:0; stroke-width: 2; stroke: #000000" points="611.846,708.34 601.273,704.704 606.593,702.987 608.411,697.7 "/>
  </g>
</svg>
