<?xml version="1.0" encoding="UTF-8" standalone="no"?>
<!DOCTYPE svg PUBLIC "-//W3C//DTD SVG 1.0//EN" "http://www.w3.org/TR/2001/PR-SVG-20010719/DTD/svg10.dtd">
<svg width="27cm" height="43cm" viewBox="20 -132 531 846" xmlns="http://www.w3.org/2000/svg" xmlns:xlink="http://www.w3.org/1999/xlink">
  <g>
    <rect style="fill: #ffffff" x="213.673" y="-52.8277" width="66.2" height="54"/>
    <rect style="fill: none; fill-opacity:0; stroke-width: 2; stroke: #000000" x="213.673" y="-52.8277" width="66.2" height="54"/>
    <text font-size="12.8" style="fill: #000000;text-anchor:middle;font-family:sans-serif;font-style:normal;font-weight:normal" x="246.773" y="-29.0277">
      <tspan x="246.773" y="-29.0277">Escoger</tspan>
      <tspan x="246.773" y="-13.0277">sesion</tspan>
    </text>
  </g>
  <g>
    <polygon style="fill: #ffffff" points="246.845,40.7967 350.081,98.8373 246.845,156.878 143.609,98.8373 "/>
    <polygon style="fill: none; fill-opacity:0; stroke-width: 2; stroke: #000000" points="246.845,40.7967 350.081,98.8373 246.845,156.878 143.609,98.8373 "/>
    <text font-size="12.8" style="fill: #000000;text-anchor:middle;font-family:sans-serif;font-style:normal;font-weight:normal" x="246.845" y="95.6373">
      <tspan x="246.845" y="95.6373">Confirmación del </tspan>
      <tspan x="246.845" y="111.637">usuario</tspan>
    </text>
  </g>
  <g>
    <polyline style="fill: none; fill-opacity:0; stroke-width: 2; stroke: #000000" points="143.609,98.8373 135.387,98.8373 135.387,-39.3277 203.937,-39.3277 "/>
    <polygon style="fill: #000000" points="211.437,-39.3277 201.437,-34.3277 203.937,-39.3277 201.437,-44.3277 "/>
    <polygon style="fill: none; fill-opacity:0; stroke-width: 2; stroke: #000000" points="211.437,-39.3277 201.437,-34.3277 203.937,-39.3277 201.437,-44.3277 "/>
  </g>
  <g>
    <line style="fill: none; fill-opacity:0; stroke-width: 2; stroke: #000000" x1="246.753" y1="-91.5254" x2="246.768" y2="-62.5637"/>
    <polygon style="fill: #000000" points="246.772,-55.0637 241.767,-65.0612 246.768,-62.5637 251.767,-65.0663 "/>
    <polygon style="fill: none; fill-opacity:0; stroke-width: 2; stroke: #000000" points="246.772,-55.0637 241.767,-65.0612 246.768,-62.5637 251.767,-65.0663 "/>
  </g>
  <g>
    <line style="fill: none; fill-opacity:0; stroke-width: 2; stroke: #000000" x1="246.773" y1="1.17233" x2="246.827" y2="31.0607"/>
    <polygon style="fill: #000000" points="246.841,38.5607 241.823,28.5698 246.827,31.0607 251.823,28.5516 "/>
    <polygon style="fill: none; fill-opacity:0; stroke-width: 2; stroke: #000000" points="246.841,38.5607 241.823,28.5698 246.827,31.0607 251.823,28.5516 "/>
  </g>
  <g>
    <ellipse style="fill: #ffffff" cx="246.753" cy="-110.988" rx="57.5926" ry="19.4625"/>
    <ellipse style="fill: none; fill-opacity:0; stroke-width: 2; stroke: #000000" cx="246.753" cy="-110.988" rx="57.5926" ry="19.4625"/>
    <text font-size="12.8" style="fill: #000000;text-anchor:middle;font-family:sans-serif;font-style:normal;font-weight:normal" x="246.753" y="-106.188">
      <tspan x="246.753" y="-106.188">record.sh</tspan>
    </text>
  </g>
  <text font-size="12.8" style="fill: #000000;text-anchor:start;font-family:sans-serif;font-style:normal;font-weight:normal" x="232.147" y="173.904">
    <tspan x="232.147" y="173.904">Si</tspan>
  </text>
  <g>
    <rect style="fill: #ffffff" x="172.794" y="292.151" width="148.05" height="54"/>
    <rect style="fill: none; fill-opacity:0; stroke-width: 2; stroke: #000000" x="172.794" y="292.151" width="148.05" height="54"/>
    <text font-size="12.8" style="fill: #000000;text-anchor:middle;font-family:sans-serif;font-style:normal;font-weight:normal" x="246.819" y="315.951">
      <tspan x="246.819" y="315.951">Se crea nueva carpeta</tspan>
      <tspan x="246.819" y="331.951">para la sesion</tspan>
    </text>
  </g>
  <g>
    <ellipse style="fill: #ffffff" cx="102.27" cy="584.114" rx="56.9329" ry="35.4644"/>
    <ellipse style="fill: none; fill-opacity:0; stroke-width: 2; stroke: #000000" cx="102.27" cy="584.114" rx="56.9329" ry="35.4644"/>
    <text font-size="12.8" style="fill: #000000;text-anchor:middle;font-family:sans-serif;font-style:normal;font-weight:normal" x="102.27" y="588.914">
      <tspan x="102.27" y="588.914">videoRecord.sh</tspan>
    </text>
  </g>
  <g>
    <ellipse style="fill: #ffffff" cx="247.014" cy="586.865" rx="56.9329" ry="35.4644"/>
    <ellipse style="fill: none; fill-opacity:0; stroke-width: 2; stroke: #000000" cx="247.014" cy="586.865" rx="56.9329" ry="35.4644"/>
    <text font-size="12.8" style="fill: #000000;text-anchor:middle;font-family:sans-serif;font-style:normal;font-weight:normal" x="247.014" y="591.665">
      <tspan x="247.014" y="591.665">videoRecord.sh</tspan>
    </text>
  </g>
  <g>
    <ellipse style="fill: #ffffff" cx="387.404" cy="581.882" rx="57.0579" ry="35.5423"/>
    <ellipse style="fill: none; fill-opacity:0; stroke-width: 2; stroke: #000000" cx="387.404" cy="581.882" rx="57.0579" ry="35.5423"/>
    <text font-size="12.8" style="fill: #000000;text-anchor:middle;font-family:sans-serif;font-style:normal;font-weight:normal" x="387.404" y="586.682">
      <tspan x="387.404" y="586.682">audioRecord.sh</tspan>
    </text>
  </g>
  <g>
    <rect style="fill: #ffffff" x="155.87" y="215.963" width="182.05" height="38"/>
    <rect style="fill: none; fill-opacity:0; stroke-width: 2; stroke: #000000" x="155.87" y="215.963" width="182.05" height="38"/>
    <text font-size="12.8" style="fill: #000000;text-anchor:middle;font-family:sans-serif;font-style:normal;font-weight:normal" x="246.895" y="239.763">
      <tspan x="246.895" y="239.763">Contador=SESSIONTIME/10</tspan>
    </text>
  </g>
  <g>
    <polyline style="fill: none; fill-opacity:0; stroke-width: 2; stroke: #000000" points="203.515,693.86 21.2888,693.86 21.2888,447.043 148.108,447.043 "/>
    <polygon style="fill: #000000" points="155.608,447.043 145.608,452.043 148.108,447.043 145.608,442.043 "/>
    <polygon style="fill: none; fill-opacity:0; stroke-width: 2; stroke: #000000" points="155.608,447.043 145.608,452.043 148.108,447.043 145.608,442.043 "/>
  </g>
  <g>
    <line style="fill: none; fill-opacity:0; stroke-width: 2; stroke: #000000" x1="246.895" y1="253.963" x2="246.838" y2="282.415"/>
    <polygon style="fill: #000000" points="246.823,289.915 241.843,279.905 246.838,282.415 251.843,279.925 "/>
    <polygon style="fill: none; fill-opacity:0; stroke-width: 2; stroke: #000000" points="246.823,289.915 241.843,279.905 246.838,282.415 251.843,279.925 "/>
  </g>
  <g>
    <line style="fill: none; fill-opacity:0; stroke-width: 2; stroke: #000000" x1="247.014" y1="622.329" x2="246.913" y2="665.124"/>
    <polygon style="fill: #000000" points="246.895,672.624 241.919,662.612 246.913,665.124 251.919,662.636 "/>
    <polygon style="fill: none; fill-opacity:0; stroke-width: 2; stroke: #000000" points="246.895,672.624 241.919,662.612 246.913,665.124 251.919,662.636 "/>
  </g>
  <g>
    <rect style="fill: #ffffff" x="506.243" y="516.065" width="43.45" height="38"/>
    <rect style="fill: none; fill-opacity:0; stroke-width: 2; stroke: #000000" x="506.243" y="516.065" width="43.45" height="38"/>
    <text font-size="12.8" style="fill: #000000;text-anchor:middle;font-family:sans-serif;font-style:normal;font-weight:normal" x="527.968" y="539.865">
      <tspan x="527.968" y="539.865">End</tspan>
    </text>
  </g>
  <g>
    <line style="fill: none; fill-opacity:0; stroke-width: 2; stroke: #000000" x1="246.845" y1="156.878" x2="246.876" y2="205.229"/>
    <polygon style="fill: #000000" points="246.881,212.729 241.875,202.732 246.876,205.229 251.875,202.726 "/>
    <polygon style="fill: none; fill-opacity:0; stroke-width: 2; stroke: #000000" points="246.881,212.729 241.875,202.732 246.876,205.229 251.875,202.726 "/>
  </g>
  <text font-size="12.8" style="fill: #000000;text-anchor:start;font-family:sans-serif;font-style:normal;font-weight:normal" x="246.845" y="98.8373">
    <tspan x="246.845" y="98.8373"></tspan>
  </text>
  <text font-size="12.7998" style="fill: #000000;text-anchor:start;font-family:sans-serif;font-style:normal;font-weight:normal" x="246.895" y="234.963">
    <tspan x="246.895" y="234.963"></tspan>
  </text>
  <text font-size="12.7998" style="fill: #000000;text-anchor:start;font-family:sans-serif;font-style:normal;font-weight:normal" x="247.8" y="807.052">
    <tspan x="247.8" y="807.052"></tspan>
  </text>
  <g>
    <rect style="fill: #ffffff" x="203.515" y="674.86" width="86.75" height="38"/>
    <rect style="fill: none; fill-opacity:0; stroke-width: 2; stroke: #000000" x="203.515" y="674.86" width="86.75" height="38"/>
    <text font-size="12.8" style="fill: #000000;text-anchor:middle;font-family:sans-serif;font-style:normal;font-weight:normal" x="246.89" y="698.66">
      <tspan x="246.89" y="698.66">Contador --</tspan>
    </text>
  </g>
  <g>
    <polygon style="fill: #ffffff" points="246.56,399.707 335.276,447.043 246.56,494.379 157.844,447.043 "/>
    <polygon style="fill: none; fill-opacity:0; stroke-width: 2; stroke: #000000" points="246.56,399.707 335.276,447.043 246.56,494.379 157.844,447.043 "/>
    <text font-size="12.8" style="fill: #000000;text-anchor:middle;font-family:sans-serif;font-style:normal;font-weight:normal" x="246.56" y="451.843">
      <tspan x="246.56" y="451.843">while Contador&gt;0</tspan>
    </text>
  </g>
  <g>
    <polyline style="fill: none; fill-opacity:0; stroke-width: 2; stroke: #000000" points="335.276,447.043 335.276,447.406 527.968,447.406 527.968,506.329 "/>
    <polygon style="fill: #000000" points="527.968,513.829 522.968,503.829 527.968,506.329 532.968,503.829 "/>
    <polygon style="fill: none; fill-opacity:0; stroke-width: 2; stroke: #000000" points="527.968,513.829 522.968,503.829 527.968,506.329 532.968,503.829 "/>
  </g>
  <g>
    <line style="fill: none; fill-opacity:0; stroke-width: 2; stroke: #000000" x1="202.202" y1="470.711" x2="109.948" y2="542.662"/>
    <polygon style="fill: #000000" points="104.034,547.275 108.844,537.182 109.948,542.662 114.994,545.068 "/>
    <polygon style="fill: none; fill-opacity:0; stroke-width: 2; stroke: #000000" points="104.034,547.275 108.844,537.182 109.948,542.662 114.994,545.068 "/>
  </g>
  <g>
    <line style="fill: none; fill-opacity:0; stroke-width: 2; stroke: #000000" x1="246.56" y1="494.379" x2="246.936" y2="541.665"/>
    <polygon style="fill: #000000" points="246.996,549.164 241.917,539.204 246.936,541.665 251.916,539.125 "/>
    <polygon style="fill: none; fill-opacity:0; stroke-width: 2; stroke: #000000" points="246.996,549.164 241.917,539.204 246.936,541.665 251.916,539.125 "/>
  </g>
  <g>
    <line style="fill: none; fill-opacity:0; stroke-width: 2; stroke: #000000" x1="290.918" y1="470.711" x2="379.741" y2="540.334"/>
    <polygon style="fill: #000000" points="385.644,544.961 374.689,542.727 379.741,540.334 380.858,534.856 "/>
    <polygon style="fill: none; fill-opacity:0; stroke-width: 2; stroke: #000000" points="385.644,544.961 374.689,542.727 379.741,540.334 380.858,534.856 "/>
  </g>
  <text font-size="12.7998" style="fill: #000000;text-anchor:start;font-family:sans-serif;font-style:normal;font-weight:normal" x="343.392" y="443.156">
    <tspan x="343.392" y="443.156">No</tspan>
  </text>
  <g>
    <line style="fill: none; fill-opacity:0; stroke-width: 2; stroke: #000000" x1="246.819" y1="346.151" x2="246.607" y2="389.971"/>
    <polygon style="fill: #000000" points="246.571,397.471 241.619,387.447 246.607,389.971 251.619,387.495 "/>
    <polygon style="fill: none; fill-opacity:0; stroke-width: 2; stroke: #000000" points="246.571,397.471 241.619,387.447 246.607,389.971 251.619,387.495 "/>
  </g>
  <text font-size="12.7998" style="fill: #000000;text-anchor:start;font-family:sans-serif;font-style:normal;font-weight:normal" x="143.987" y="79.6572">
    <tspan x="143.987" y="79.6572">No</tspan>
  </text>
  <g>
    <polyline style="fill: none; fill-opacity:0; stroke-width: 2; stroke: #000000" points="102.27,619.579 102.27,647.219 246.89,647.219 246.89,665.124 "/>
    <polygon style="fill: #000000" points="246.89,672.624 241.89,662.624 246.89,665.124 251.89,662.624 "/>
    <polygon style="fill: none; fill-opacity:0; stroke-width: 2; stroke: #000000" points="246.89,672.624 241.89,662.624 246.89,665.124 251.89,662.624 "/>
  </g>
  <g>
    <polyline style="fill: none; fill-opacity:0; stroke-width: 2; stroke: #000000" points="387.404,617.425 387.404,647.594 246.89,647.594 246.89,665.124 "/>
    <polygon style="fill: #000000" points="246.89,672.624 241.89,662.624 246.89,665.124 251.89,662.624 "/>
    <polygon style="fill: none; fill-opacity:0; stroke-width: 2; stroke: #000000" points="246.89,672.624 241.89,662.624 246.89,665.124 251.89,662.624 "/>
  </g>
</svg>
