<?xml version="1.0" encoding="UTF-8" standalone="no"?>
<!DOCTYPE svg PUBLIC "-//W3C//DTD SVG 1.0//EN" "http://www.w3.org/TR/2001/PR-SVG-20010719/DTD/svg10.dtd">
<svg width="54cm" height="28cm" viewBox="-187 31 1065 550" xmlns="http://www.w3.org/2000/svg" xmlns:xlink="http://www.w3.org/1999/xlink">
  <g>
    <polygon style="fill: #ffffff" points="293.866,136.711 343.378,186.943 293.866,237.174 244.354,186.943 "/>
    <polygon style="fill: none; fill-opacity:0; stroke-width: 2; stroke: #000000" points="293.866,136.711 343.378,186.943 293.866,237.174 244.354,186.943 "/>
    <text font-size="12.8" style="fill: #000000;text-anchor:middle;font-family:sans-serif;font-style:normal;font-weight:normal" x="293.866" y="191.743">
      <tspan x="293.866" y="191.743">¿Opción?</tspan>
    </text>
  </g>
  <text font-size="12.8" style="fill: #000000;text-anchor:start;font-family:sans-serif;font-style:normal;font-weight:normal" x="293.866" y="186.943">
    <tspan x="293.866" y="186.943"></tspan>
  </text>
  <g>
    <rect style="fill: #ffffff" x="803.137" y="250.673" width="42.35" height="38"/>
    <rect style="fill: none; fill-opacity:0; stroke-width: 2; stroke: #000000" x="803.137" y="250.673" width="42.35" height="38"/>
    <text font-size="12.8" style="fill: #000000;text-anchor:middle;font-family:sans-serif;font-style:normal;font-weight:normal" x="824.312" y="274.473">
      <tspan x="824.312" y="274.473">exit</tspan>
    </text>
  </g>
  <text font-size="12.8" style="fill: #000000;text-anchor:start;font-family:sans-serif;font-style:normal;font-weight:normal" x="516.376" y="192.589">
    <tspan x="516.376" y="192.589"></tspan>
  </text>
  <g>
    <polyline style="fill: none; fill-opacity:0; stroke-width: 2; stroke: #000000" points="244.354,186.943 244.354,204.928 -46.3513,204.928 -46.3513,286.748 "/>
    <polygon style="fill: #000000" points="-46.3513,294.248 -51.3513,284.248 -46.3513,286.748 -41.3513,284.248 "/>
    <polygon style="fill: none; fill-opacity:0; stroke-width: 2; stroke: #000000" points="-46.3513,294.248 -51.3513,284.248 -46.3513,286.748 -41.3513,284.248 "/>
  </g>
  <g>
    <polyline style="fill: none; fill-opacity:0; stroke-width: 2; stroke: #000000" points="269.11,212.059 269.11,228.77 146.562,228.77 146.562,344.317 "/>
    <polygon style="fill: #000000" points="146.562,351.817 141.562,341.817 146.562,344.317 151.562,341.817 "/>
    <polygon style="fill: none; fill-opacity:0; stroke-width: 2; stroke: #000000" points="146.562,351.817 141.562,341.817 146.562,344.317 151.562,341.817 "/>
  </g>
  <g>
    <line style="fill: none; fill-opacity:0; stroke-width: 2; stroke: #000000" x1="293.866" y1="237.174" x2="292.622" y2="290.266"/>
    <polygon style="fill: #000000" points="292.447,297.764 287.682,287.65 292.622,290.266 297.679,287.884 "/>
    <polygon style="fill: none; fill-opacity:0; stroke-width: 2; stroke: #000000" points="292.447,297.764 287.682,287.65 292.622,290.266 297.679,287.884 "/>
  </g>
  <g>
    <polyline style="fill: none; fill-opacity:0; stroke-width: 2; stroke: #000000" points="318.622,212.059 318.622,261.958 439.128,261.958 439.128,352.94 "/>
    <polygon style="fill: #000000" points="439.128,360.44 434.128,350.44 439.128,352.94 444.128,350.44 "/>
    <polygon style="fill: none; fill-opacity:0; stroke-width: 2; stroke: #000000" points="439.128,360.44 434.128,350.44 439.128,352.94 444.128,350.44 "/>
  </g>
  <g>
    <polyline style="fill: none; fill-opacity:0; stroke-width: 2; stroke: #000000" points="343.378,186.943 343.378,186.763 824.312,186.763 824.312,240.937 "/>
    <polygon style="fill: #000000" points="824.312,248.437 819.312,238.437 824.312,240.937 829.312,238.437 "/>
    <polygon style="fill: none; fill-opacity:0; stroke-width: 2; stroke: #000000" points="824.312,248.437 819.312,238.437 824.312,240.937 829.312,238.437 "/>
  </g>
  <g>
    <polyline style="fill: none; fill-opacity:0; stroke-width: 2; stroke: #000000" points="331,199.501 331,236.28 682.822,236.28 682.822,264.62 "/>
    <polygon style="fill: #000000" points="682.822,272.12 677.822,262.12 682.822,264.62 687.822,262.12 "/>
    <polygon style="fill: none; fill-opacity:0; stroke-width: 2; stroke: #000000" points="682.822,272.12 677.822,262.12 682.822,264.62 687.822,262.12 "/>
  </g>
  <g>
    <line style="fill: none; fill-opacity:0; stroke-width: 2; stroke: #000000" x1="293.883" y1="80.7253" x2="293.869" y2="126.975"/>
    <polygon style="fill: #000000" points="293.867,134.475 288.87,124.474 293.869,126.975 298.87,124.477 "/>
    <polygon style="fill: none; fill-opacity:0; stroke-width: 2; stroke: #000000" points="293.867,134.475 288.87,124.474 293.869,126.975 298.87,124.477 "/>
  </g>
  <g>
    <polygon style="fill: #ffffff" points="-46.8606,391.324 11.8126,424.968 -46.8606,458.612 -105.534,424.968 "/>
    <polygon style="fill: none; fill-opacity:0; stroke-width: 2; stroke: #000000" points="-46.8606,391.324 11.8126,424.968 -46.8606,458.612 -105.534,424.968 "/>
    <text font-size="12.8" style="fill: #000000;text-anchor:middle;font-family:sans-serif;font-style:normal;font-weight:normal" x="-46.8606" y="429.768">
      <tspan x="-46.8606" y="429.768">Opcion?</tspan>
    </text>
  </g>
  <g>
    <line style="fill: none; fill-opacity:0; stroke-width: 2; stroke: #000000" x1="-46.3513" y1="342.239" x2="-46.7596" y2="381.588"/>
    <polygon style="fill: #000000" points="-46.8374,389.088 -51.7334,379.037 -46.7596,381.588 -41.7339,379.14 "/>
    <polygon style="fill: none; fill-opacity:0; stroke-width: 2; stroke: #000000" points="-46.8374,389.088 -51.7334,379.037 -46.7596,381.588 -41.7339,379.14 "/>
  </g>
  <g>
    <polyline style="fill: none; fill-opacity:0; stroke-width: 2; stroke: #000000" points="-76.1972,441.79 -76.1972,445.358 -125.394,445.358 -125.394,476.072 "/>
    <polygon style="fill: #000000" points="-125.394,483.572 -130.394,473.572 -125.394,476.072 -120.394,473.572 "/>
    <polygon style="fill: none; fill-opacity:0; stroke-width: 2; stroke: #000000" points="-125.394,483.572 -130.394,473.572 -125.394,476.072 -120.394,473.572 "/>
  </g>
  <g>
    <polyline style="fill: none; fill-opacity:0; stroke-width: 2; stroke: #000000" points="-46.8606,458.612 -46.8606,485.082 -46.8284,485.082 -46.8284,529.228 "/>
    <polygon style="fill: #000000" points="-46.8284,536.728 -51.8284,526.728 -46.8284,529.228 -41.8284,526.728 "/>
    <polygon style="fill: none; fill-opacity:0; stroke-width: 2; stroke: #000000" points="-46.8284,536.728 -51.8284,526.728 -46.8284,529.228 -41.8284,526.728 "/>
  </g>
  <polyline style="fill: none; fill-opacity:0; stroke-width: 2; stroke: #000000" points="-17.5241,441.79 42.6142,441.49 "/>
  <g>
    <polyline style="fill: none; fill-opacity:0; stroke-width: 2; stroke: #000000" points="36.9574,441.49 55.3422,441.49 55.3422,161.827 259.374,161.827 "/>
    <polygon style="fill: #000000" points="266.874,161.827 256.874,166.827 259.374,161.827 256.874,156.827 "/>
    <polygon style="fill: none; fill-opacity:0; stroke-width: 2; stroke: #000000" points="266.874,161.827 256.874,166.827 259.374,161.827 256.874,156.827 "/>
  </g>
  <g>
    <ellipse style="fill: #ffffff" cx="293.883" cy="56.7574" rx="47.1646" ry="23.9678"/>
    <ellipse style="fill: none; fill-opacity:0; stroke-width: 2; stroke: #000000" cx="293.883" cy="56.7574" rx="47.1646" ry="23.9678"/>
    <text font-size="12.8" style="fill: #000000;text-anchor:middle;font-family:sans-serif;font-style:normal;font-weight:normal" x="293.883" y="61.5574">
      <tspan x="293.883" y="61.5574">Menu.sh</tspan>
    </text>
  </g>
  <g>
    <ellipse style="fill: #ffffff" cx="-46.3513" cy="319.361" rx="48.6669" ry="22.8774"/>
    <ellipse style="fill: none; fill-opacity:0; stroke-width: 2; stroke: #000000" cx="-46.3513" cy="319.361" rx="48.6669" ry="22.8774"/>
    <text font-size="12.8" style="fill: #000000;text-anchor:middle;font-family:sans-serif;font-style:normal;font-weight:normal" x="-46.3513" y="324.161">
      <tspan x="-46.3513" y="324.161">menu2.sh</tspan>
    </text>
  </g>
  <g>
    <ellipse style="fill: #ffffff" cx="-46.8285" cy="559.685" rx="51.7627" ry="20.7205"/>
    <ellipse style="fill: none; fill-opacity:0; stroke-width: 2; stroke: #000000" cx="-46.8285" cy="559.685" rx="51.7627" ry="20.7205"/>
    <text font-size="12.8" style="fill: #000000;text-anchor:middle;font-family:sans-serif;font-style:normal;font-weight:normal" x="-46.8285" y="564.485">
      <tspan x="-46.8285" y="564.485">record.sh</tspan>
    </text>
  </g>
  <g>
    <ellipse style="fill: #ffffff" cx="-125.394" cy="513.739" rx="60.3757" ry="27.9314"/>
    <ellipse style="fill: none; fill-opacity:0; stroke-width: 2; stroke: #000000" cx="-125.394" cy="513.739" rx="60.3757" ry="27.9314"/>
    <text font-size="12.8" style="fill: #000000;text-anchor:middle;font-family:sans-serif;font-style:normal;font-weight:normal" x="-125.394" y="518.539">
      <tspan x="-125.394" y="518.539">saveSession.sh</tspan>
    </text>
  </g>
  <g>
    <ellipse style="fill: #ffffff" cx="146.562" cy="382.735" rx="70.0802" ry="28.6821"/>
    <ellipse style="fill: none; fill-opacity:0; stroke-width: 2; stroke: #000000" cx="146.562" cy="382.735" rx="70.0802" ry="28.6821"/>
    <text font-size="12.8" style="fill: #000000;text-anchor:middle;font-family:sans-serif;font-style:normal;font-weight:normal" x="146.562" y="387.535">
      <tspan x="146.562" y="387.535">fileGeneration.sh</tspan>
    </text>
  </g>
  <g>
    <ellipse style="fill: #ffffff" cx="292.394" cy="326.564" rx="58.6165" ry="26.5644"/>
    <ellipse style="fill: none; fill-opacity:0; stroke-width: 2; stroke: #000000" cx="292.394" cy="326.564" rx="58.6165" ry="26.5644"/>
    <text font-size="12.8" style="fill: #000000;text-anchor:middle;font-family:sans-serif;font-style:normal;font-weight:normal" x="292.394" y="331.364">
      <tspan x="292.394" y="331.364">playStation.sh</tspan>
    </text>
  </g>
  <g>
    <ellipse style="fill: #ffffff" cx="439.128" cy="396.309" rx="81.2538" ry="33.6325"/>
    <ellipse style="fill: none; fill-opacity:0; stroke-width: 2; stroke: #000000" cx="439.128" cy="396.309" rx="81.2538" ry="33.6325"/>
    <text font-size="12.8" style="fill: #000000;text-anchor:middle;font-family:sans-serif;font-style:normal;font-weight:normal" x="439.128" y="401.109">
      <tspan x="439.128" y="401.109">softwareInstallation.sh</tspan>
    </text>
  </g>
  <g>
    <ellipse style="fill: #ffffff" cx="682.822" cy="308.894" rx="54.4712" ry="34.5379"/>
    <ellipse style="fill: none; fill-opacity:0; stroke-width: 2; stroke: #000000" cx="682.822" cy="308.894" rx="54.4712" ry="34.5379"/>
    <text font-size="12.8" style="fill: #000000;text-anchor:middle;font-family:sans-serif;font-style:normal;font-weight:normal" x="682.822" y="313.694">
      <tspan x="682.822" y="313.694">userManual.sh</tspan>
    </text>
  </g>
  <text font-size="12.8" style="fill: #000000;text-anchor:start;font-family:sans-serif;font-style:normal;font-weight:normal" x="225.975" y="200.967">
    <tspan x="225.975" y="200.967">1</tspan>
  </text>
  <text font-size="12.8" style="fill: #000000;text-anchor:start;font-family:sans-serif;font-style:normal;font-weight:normal" x="247.284" y="228.888">
    <tspan x="247.284" y="228.888">2</tspan>
  </text>
  <text font-size="12.8" style="fill: #000000;text-anchor:start;font-family:sans-serif;font-style:normal;font-weight:normal" x="285.877" y="247.209">
    <tspan x="285.877" y="247.209">3</tspan>
  </text>
  <text font-size="12.8" style="fill: #000000;text-anchor:start;font-family:sans-serif;font-style:normal;font-weight:normal" x="322.239" y="255.892">
    <tspan x="322.239" y="255.892">4</tspan>
  </text>
  <text font-size="12.8" style="fill: #000000;text-anchor:start;font-family:sans-serif;font-style:normal;font-weight:normal" x="337.815" y="234.469">
    <tspan x="337.815" y="234.469">5</tspan>
  </text>
  <text font-size="12.8" style="fill: #000000;text-anchor:start;font-family:sans-serif;font-style:normal;font-weight:normal" x="345.653" y="198.736">
    <tspan x="345.653" y="198.736">6</tspan>
  </text>
  <text font-size="12.8" style="fill: #000000;text-anchor:start;font-family:sans-serif;font-style:normal;font-weight:normal" x="-111.93" y="440.048">
    <tspan x="-111.93" y="440.048">1</tspan>
  </text>
  <text font-size="12.8" style="fill: #000000;text-anchor:start;font-family:sans-serif;font-style:normal;font-weight:normal" x="-40.4546" y="468.638">
    <tspan x="-40.4546" y="468.638">2</tspan>
  </text>
  <text font-size="12.8" style="fill: #000000;text-anchor:start;font-family:sans-serif;font-style:normal;font-weight:normal" x="19.2486" y="436.684">
    <tspan x="19.2486" y="436.684">3</tspan>
  </text>
  <g>
    <ellipse style="fill: #ffffff" cx="340.266" cy="494.469" rx="67.6264" ry="24.5667"/>
    <ellipse style="fill: none; fill-opacity:0; stroke-width: 2; stroke: #000000" cx="340.266" cy="494.469" rx="67.6264" ry="24.5667"/>
    <text font-size="12.7998" style="fill: #000000;text-anchor:middle;font-family:sans-serif;font-style:normal;font-weight:normal" x="340.266" y="499.269">
      <tspan x="340.266" y="499.269">fromInternet.sh</tspan>
    </text>
  </g>
  <g>
    <ellipse style="fill: #ffffff" cx="521.821" cy="492.872" rx="60.0673" ry="22.5336"/>
    <ellipse style="fill: none; fill-opacity:0; stroke-width: 2; stroke: #000000" cx="521.821" cy="492.872" rx="60.0673" ry="22.5336"/>
    <text font-size="12.7998" style="fill: #000000;text-anchor:middle;font-family:sans-serif;font-style:normal;font-weight:normal" x="521.821" y="497.672">
      <tspan x="521.821" y="497.672">fromPath.sh</tspan>
    </text>
  </g>
  <g>
    <polyline style="fill: none; fill-opacity:0; stroke-width: 2; stroke: #000000" points="408.033,427.381 408.033,448.641 340.266,448.641 340.266,460.166 "/>
    <polygon style="fill: #000000" points="340.266,467.666 335.266,457.666 340.266,460.166 345.266,457.666 "/>
    <polygon style="fill: none; fill-opacity:0; stroke-width: 2; stroke: #000000" points="340.266,467.666 335.266,457.666 340.266,460.166 345.266,457.666 "/>
  </g>
  <g>
    <polyline style="fill: none; fill-opacity:0; stroke-width: 2; stroke: #000000" points="470.222,427.381 470.222,448.859 521.821,448.859 521.821,460.602 "/>
    <polygon style="fill: #000000" points="521.821,468.102 516.821,458.102 521.821,460.602 526.821,458.102 "/>
    <polygon style="fill: none; fill-opacity:0; stroke-width: 2; stroke: #000000" points="521.821,468.102 516.821,458.102 521.821,460.602 526.821,458.102 "/>
  </g>
  <text font-size="12.7998" style="fill: #000000;text-anchor:start;font-family:sans-serif;font-style:normal;font-weight:normal" x="399.151" y="440.284">
    <tspan x="399.151" y="440.284">1</tspan>
  </text>
  <text font-size="12.7998" style="fill: #000000;text-anchor:start;font-family:sans-serif;font-style:normal;font-weight:normal" x="474.503" y="440.163">
    <tspan x="474.503" y="440.163">2</tspan>
  </text>
  <g>
    <polyline style="fill: none; fill-opacity:0; stroke-width: 2; stroke: #000000" points="520.382,396.309 537.89,396.309 537.89,174.385 340.736,174.385 "/>
    <polygon style="fill: #000000" points="333.236,174.385 343.236,169.385 340.736,174.385 343.236,179.385 "/>
    <polygon style="fill: none; fill-opacity:0; stroke-width: 2; stroke: #000000" points="333.236,174.385 343.236,169.385 340.736,174.385 343.236,179.385 "/>
  </g>
  <text font-size="12.7998" style="fill: #000000;text-anchor:start;font-family:sans-serif;font-style:normal;font-weight:normal" x="522.352" y="394.191">
    <tspan x="522.352" y="394.191">3</tspan>
  </text>
  <g>
    <ellipse style="fill: #ffffff" cx="709.134" cy="436.124" rx="46.343" ry="24.2132"/>
    <ellipse style="fill: none; fill-opacity:0; stroke-width: 2; stroke: #000000" cx="709.134" cy="436.124" rx="46.343" ry="24.2132"/>
    <text font-size="12.7998" style="fill: #000000;text-anchor:middle;font-family:sans-serif;font-style:normal;font-weight:normal" x="709.134" y="440.924">
      <tspan x="709.134" y="440.924">credits.sh</tspan>
    </text>
  </g>
  <g>
    <ellipse style="fill: #ffffff" cx="807.031" cy="375.47" rx="69.6335" ry="36.5031"/>
    <ellipse style="fill: none; fill-opacity:0; stroke-width: 2; stroke: #000000" cx="807.031" cy="375.47" rx="69.6335" ry="36.5031"/>
    <text font-size="12.7998" style="fill: #000000;text-anchor:middle;font-family:sans-serif;font-style:normal;font-weight:normal" x="807.031" y="380.27">
      <tspan x="807.031" y="380.27">installationGuide.sh</tspan>
    </text>
  </g>
  <text font-size="12.7998" style="fill: #000000;text-anchor:start;font-family:sans-serif;font-style:normal;font-weight:normal" x="682.822" y="308.894">
    <tspan x="682.822" y="308.894"></tspan>
  </text>
  <g>
    <ellipse style="fill: #ffffff" cx="617.823" cy="393.622" rx="57.1156" ry="24.8383"/>
    <ellipse style="fill: none; fill-opacity:0; stroke-width: 2; stroke: #000000" cx="617.823" cy="393.622" rx="57.1156" ry="24.8383"/>
    <text font-size="12.7998" style="fill: #000000;text-anchor:middle;font-family:sans-serif;font-style:normal;font-weight:normal" x="617.823" y="398.422">
      <tspan x="617.823" y="398.422">userGuide.sh</tspan>
    </text>
  </g>
  <g>
    <polyline style="fill: none; fill-opacity:0; stroke-width: 2; stroke: #000000" points="661.977,340.803 661.977,339.655 623.89,339.655 623.89,339.587 617.823,339.587 617.823,359.047 "/>
    <polygon style="fill: #000000" points="617.823,366.547 612.823,356.547 617.823,359.047 622.823,356.547 "/>
    <polygon style="fill: none; fill-opacity:0; stroke-width: 2; stroke: #000000" points="617.823,366.547 612.823,356.547 617.823,359.047 622.823,356.547 "/>
  </g>
  <g>
    <polyline style="fill: none; fill-opacity:0; stroke-width: 2; stroke: #000000" points="733.147,322.111 754.147,322.111 754.147,321.814 807.031,321.814 807.031,329.231 "/>
    <polygon style="fill: #000000" points="807.031,336.731 802.031,326.731 807.031,329.231 812.031,326.731 "/>
    <polygon style="fill: none; fill-opacity:0; stroke-width: 2; stroke: #000000" points="807.031,336.731 802.031,326.731 807.031,329.231 812.031,326.731 "/>
  </g>
  <g>
    <polyline style="fill: none; fill-opacity:0; stroke-width: 2; stroke: #000000" points="682.822,343.432 682.822,377.671 709.134,377.671 709.134,402.175 "/>
    <polygon style="fill: #000000" points="709.134,409.675 704.134,399.675 709.134,402.175 714.134,399.675 "/>
    <polygon style="fill: none; fill-opacity:0; stroke-width: 2; stroke: #000000" points="709.134,409.675 704.134,399.675 709.134,402.175 714.134,399.675 "/>
  </g>
  <text font-size="12.7998" style="fill: #000000;text-anchor:start;font-family:sans-serif;font-style:normal;font-weight:normal" x="631.939" y="336.401">
    <tspan x="631.939" y="336.401">1</tspan>
  </text>
  <text font-size="12.7998" style="fill: #000000;text-anchor:start;font-family:sans-serif;font-style:normal;font-weight:normal" x="686.236" y="356.514">
    <tspan x="686.236" y="356.514">2</tspan>
  </text>
  <text font-size="12.7998" style="fill: #000000;text-anchor:start;font-family:sans-serif;font-style:normal;font-weight:normal" x="739.89" y="317.124">
    <tspan x="739.89" y="317.124">3</tspan>
  </text>
  <g>
    <polyline style="fill: none; fill-opacity:0; stroke-width: 2; stroke: #000000" points="721.339,284.472 721.339,149.666 306.244,149.666 306.244,159.005 "/>
    <polygon style="fill: #000000" points="306.244,151.505 301.244,141.505 306.244,144.005 311.244,141.505 "/>
    <polygon style="fill: none; fill-opacity:0; stroke-width: 2; stroke: #000000" points="306.244,151.505 301.244,141.505 306.244,144.005 311.244,141.505 "/>
  </g>
  <text font-size="12.7998" style="fill: #000000;text-anchor:start;font-family:sans-serif;font-style:normal;font-weight:normal" x="711.9" y="276.836">
    <tspan x="711.9" y="276.836">4</tspan>
  </text>
</svg>
