<?xml version="1.0" encoding="UTF-8" standalone="no"?>
<!DOCTYPE svg PUBLIC "-//W3C//DTD SVG 1.0//EN" "http://www.w3.org/TR/2001/PR-SVG-20010719/DTD/svg10.dtd">
<svg width="22cm" height="43cm" viewBox="20 70 426 856" xmlns="http://www.w3.org/2000/svg" xmlns:xlink="http://www.w3.org/1999/xlink">
  <g>
    <rect style="fill: #ffffff" x="215.362" y="151.322" width="66.2" height="54"/>
    <rect style="fill: none; fill-opacity:0; stroke-width: 2; stroke: #000000" x="215.362" y="151.322" width="66.2" height="54"/>
    <text font-size="12.8" style="fill: #000000;text-anchor:middle;font-family:sans-serif;font-style:normal;font-weight:normal" x="248.462" y="175.122">
      <tspan x="248.462" y="175.122">Escoger</tspan>
      <tspan x="248.462" y="191.122">sesion</tspan>
    </text>
  </g>
  <g>
    <polygon style="fill: #ffffff" points="248.534,252.376 312.09,288.108 248.534,323.841 184.978,288.108 "/>
    <polygon style="fill: none; fill-opacity:0; stroke-width: 2; stroke: #000000" points="248.534,252.376 312.09,288.108 248.534,323.841 184.978,288.108 "/>
    <text font-size="12.8" style="fill: #000000;text-anchor:middle;font-family:sans-serif;font-style:normal;font-weight:normal" x="248.534" y="292.908">
      <tspan x="248.534" y="292.908">Correcto?</tspan>
    </text>
  </g>
  <polyline style="fill: none; fill-opacity:0; stroke-width: 2; stroke: #000000" points="184.978,288.108 131.59,287.748 "/>
  <g>
    <polyline style="fill: none; fill-opacity:0; stroke-width: 2; stroke: #000000" points="133.211,288.398 130.63,288.398 130.63,178.322 205.626,178.322 "/>
    <polygon style="fill: #000000" points="213.126,178.322 203.126,183.322 205.626,178.322 203.126,173.322 "/>
    <polygon style="fill: none; fill-opacity:0; stroke-width: 2; stroke: #000000" points="213.126,178.322 203.126,183.322 205.626,178.322 203.126,173.322 "/>
  </g>
  <g>
    <line style="fill: none; fill-opacity:0; stroke-width: 2; stroke: #000000" x1="248.442" y1="110.341" x2="248.457" y2="141.586"/>
    <polygon style="fill: #000000" points="248.461,149.086 243.456,139.088 248.457,141.586 253.456,139.083 "/>
    <polygon style="fill: none; fill-opacity:0; stroke-width: 2; stroke: #000000" points="248.461,149.086 243.456,139.088 248.457,141.586 253.456,139.083 "/>
  </g>
  <g>
    <line style="fill: none; fill-opacity:0; stroke-width: 2; stroke: #000000" x1="248.462" y1="205.322" x2="248.519" y2="242.64"/>
    <polygon style="fill: #000000" points="248.531,250.14 243.515,240.148 248.519,242.64 253.515,240.132 "/>
    <polygon style="fill: none; fill-opacity:0; stroke-width: 2; stroke: #000000" points="248.531,250.14 243.515,240.148 248.519,242.64 253.515,240.132 "/>
  </g>
  <g>
    <ellipse style="fill: #ffffff" cx="248.442" cy="90.8781" rx="57.5926" ry="19.4625"/>
    <ellipse style="fill: none; fill-opacity:0; stroke-width: 2; stroke: #000000" cx="248.442" cy="90.8781" rx="57.5926" ry="19.4625"/>
    <text font-size="12.8" style="fill: #000000;text-anchor:middle;font-family:sans-serif;font-style:normal;font-weight:normal" x="248.442" y="95.6781">
      <tspan x="248.442" y="95.6781">record.sh</tspan>
    </text>
  </g>
  <text font-size="12.8" style="fill: #000000;text-anchor:start;font-family:sans-serif;font-style:normal;font-weight:normal" x="155.31" y="284.74">
    <tspan x="155.31" y="284.74">No</tspan>
  </text>
  <text font-size="12.8" style="fill: #000000;text-anchor:start;font-family:sans-serif;font-style:normal;font-weight:normal" x="227.606" y="341.5">
    <tspan x="227.606" y="341.5">Si</tspan>
  </text>
  <g>
    <rect style="fill: #ffffff" x="196.208" y="441.028" width="103.6" height="54"/>
    <rect style="fill: none; fill-opacity:0; stroke-width: 2; stroke: #000000" x="196.208" y="441.028" width="103.6" height="54"/>
    <text font-size="12.8" style="fill: #000000;text-anchor:middle;font-family:sans-serif;font-style:normal;font-weight:normal" x="248.008" y="464.828">
      <tspan x="248.008" y="464.828">Nueva carpeta</tspan>
      <tspan x="248.008" y="480.828">para la sesion</tspan>
    </text>
  </g>
  <g>
    <ellipse style="fill: #ffffff" cx="102.27" cy="584.114" rx="56.9329" ry="35.4644"/>
    <ellipse style="fill: none; fill-opacity:0; stroke-width: 2; stroke: #000000" cx="102.27" cy="584.114" rx="56.9329" ry="35.4644"/>
    <text font-size="12.8" style="fill: #000000;text-anchor:middle;font-family:sans-serif;font-style:normal;font-weight:normal" x="102.27" y="588.914">
      <tspan x="102.27" y="588.914">videoRecord.sh</tspan>
    </text>
  </g>
  <g>
    <ellipse style="fill: #ffffff" cx="248.203" cy="584.486" rx="56.9329" ry="35.4644"/>
    <ellipse style="fill: none; fill-opacity:0; stroke-width: 2; stroke: #000000" cx="248.203" cy="584.486" rx="56.9329" ry="35.4644"/>
    <text font-size="12.8" style="fill: #000000;text-anchor:middle;font-family:sans-serif;font-style:normal;font-weight:normal" x="248.203" y="589.286">
      <tspan x="248.203" y="589.286">videoRecord.sh</tspan>
    </text>
  </g>
  <g>
    <ellipse style="fill: #ffffff" cx="387.404" cy="581.882" rx="57.0579" ry="35.5423"/>
    <ellipse style="fill: none; fill-opacity:0; stroke-width: 2; stroke: #000000" cx="387.404" cy="581.882" rx="57.0579" ry="35.5423"/>
    <text font-size="12.8" style="fill: #000000;text-anchor:middle;font-family:sans-serif;font-style:normal;font-weight:normal" x="387.404" y="586.682">
      <tspan x="387.404" y="586.682">audioRecord.sh</tspan>
    </text>
  </g>
  <g>
    <rect style="fill: #ffffff" x="168.335" y="365.964" width="159.5" height="38"/>
    <rect style="fill: none; fill-opacity:0; stroke-width: 2; stroke: #000000" x="168.335" y="365.964" width="159.5" height="38"/>
    <text font-size="12.8" style="fill: #000000;text-anchor:middle;font-family:sans-serif;font-style:normal;font-weight:normal" x="248.085" y="389.764">
      <tspan x="248.085" y="389.764">Contador=PLAYTIME/10</tspan>
    </text>
  </g>
  <g>
    <rect style="fill: #ffffff" x="204.704" y="685.86" width="86.75" height="38"/>
    <rect style="fill: none; fill-opacity:0; stroke-width: 2; stroke: #000000" x="204.704" y="685.86" width="86.75" height="38"/>
    <text font-size="12.8" style="fill: #000000;text-anchor:middle;font-family:sans-serif;font-style:normal;font-weight:normal" x="248.079" y="709.66">
      <tspan x="248.079" y="709.66">Contador --</tspan>
    </text>
  </g>
  <g>
    <polygon style="fill: #ffffff" points="247.8,766.986 322.891,807.052 247.8,847.118 172.709,807.052 "/>
    <polygon style="fill: none; fill-opacity:0; stroke-width: 2; stroke: #000000" points="247.8,766.986 322.891,807.052 247.8,847.118 172.709,807.052 "/>
    <text font-size="12.8" style="fill: #000000;text-anchor:middle;font-family:sans-serif;font-style:normal;font-weight:normal" x="247.8" y="811.852">
      <tspan x="247.8" y="811.852">Contador&gt;0?</tspan>
    </text>
  </g>
  <polyline style="fill: none; fill-opacity:0; stroke-width: 2; stroke: #000000" points="172.709,807.052 21.0096,806.698 "/>
  <g>
    <polyline style="fill: none; fill-opacity:0; stroke-width: 2; stroke: #000000" points="23.9826,806.996 21.2888,806.996 21.2888,468.028 186.472,468.028 "/>
    <polygon style="fill: #000000" points="193.972,468.028 183.972,473.028 186.472,468.028 183.972,463.028 "/>
    <polygon style="fill: none; fill-opacity:0; stroke-width: 2; stroke: #000000" points="193.972,468.028 183.972,473.028 186.472,468.028 183.972,463.028 "/>
  </g>
  <g>
    <line style="fill: none; fill-opacity:0; stroke-width: 2; stroke: #000000" x1="248.084" y1="403.964" x2="248.028" y2="431.292"/>
    <polygon style="fill: #000000" points="248.013,438.792 243.033,428.782 248.028,431.292 253.033,428.802 "/>
    <polygon style="fill: none; fill-opacity:0; stroke-width: 2; stroke: #000000" points="248.013,438.792 243.033,428.782 248.028,431.292 253.033,428.802 "/>
  </g>
  <g>
    <line style="fill: none; fill-opacity:0; stroke-width: 2; stroke: #000000" x1="248.008" y1="495.028" x2="111.408" y2="545.288"/>
    <polygon style="fill: #000000" points="104.369,547.878 112.027,539.732 111.408,545.288 115.48,549.117 "/>
    <polygon style="fill: none; fill-opacity:0; stroke-width: 2; stroke: #000000" points="104.369,547.878 112.027,539.732 111.408,545.288 115.48,549.117 "/>
  </g>
  <g>
    <line style="fill: none; fill-opacity:0; stroke-width: 2; stroke: #000000" x1="248.008" y1="495.028" x2="248.169" y2="539.286"/>
    <polygon style="fill: #000000" points="248.196,546.786 243.16,536.804 248.169,539.286 253.16,536.768 "/>
    <polygon style="fill: none; fill-opacity:0; stroke-width: 2; stroke: #000000" points="248.196,546.786 243.16,536.804 248.169,539.286 253.16,536.768 "/>
  </g>
  <g>
    <line style="fill: none; fill-opacity:0; stroke-width: 2; stroke: #000000" x1="248.008" y1="495.028" x2="378.267" y2="542.977"/>
    <polygon style="fill: #000000" points="385.306,545.568 374.194,546.805 378.267,542.977 377.648,537.421 "/>
    <polygon style="fill: none; fill-opacity:0; stroke-width: 2; stroke: #000000" points="385.306,545.568 374.194,546.805 378.267,542.977 377.648,537.421 "/>
  </g>
  <g>
    <line style="fill: none; fill-opacity:0; stroke-width: 2; stroke: #000000" x1="102.27" y1="619.578" x2="217.804" y2="681.274"/>
    <polygon style="fill: #000000" points="224.42,684.807 213.243,684.507 217.804,681.274 217.954,675.686 "/>
    <polygon style="fill: none; fill-opacity:0; stroke-width: 2; stroke: #000000" points="224.42,684.807 213.243,684.507 217.804,681.274 217.954,675.686 "/>
  </g>
  <g>
    <line style="fill: none; fill-opacity:0; stroke-width: 2; stroke: #000000" x1="248.204" y1="619.95" x2="248.098" y2="676.124"/>
    <polygon style="fill: #000000" points="248.084,683.624 243.103,673.615 248.098,676.124 253.103,673.633 "/>
    <polygon style="fill: none; fill-opacity:0; stroke-width: 2; stroke: #000000" points="248.084,683.624 243.103,673.615 248.098,676.124 253.103,673.633 "/>
  </g>
  <g>
    <line style="fill: none; fill-opacity:0; stroke-width: 2; stroke: #000000" x1="387.404" y1="617.424" x2="278.184" y2="680.964"/>
    <polygon style="fill: #000000" points="271.701,684.736 277.83,675.385 278.184,680.964 282.859,684.029 "/>
    <polygon style="fill: none; fill-opacity:0; stroke-width: 2; stroke: #000000" points="271.701,684.736 277.83,675.385 278.184,680.964 282.859,684.029 "/>
  </g>
  <g>
    <line style="fill: none; fill-opacity:0; stroke-width: 2; stroke: #000000" x1="248.08" y1="723.86" x2="247.863" y2="757.25"/>
    <polygon style="fill: #000000" points="247.815,764.75 242.88,754.718 247.863,757.25 252.879,754.783 "/>
    <polygon style="fill: none; fill-opacity:0; stroke-width: 2; stroke: #000000" points="247.815,764.75 242.88,754.718 247.863,757.25 252.879,754.783 "/>
  </g>
  <g>
    <line style="fill: none; fill-opacity:0; stroke-width: 2; stroke: #000000" x1="247.8" y1="847.12" x2="247.776" y2="876.952"/>
    <polygon style="fill: #000000" points="247.77,884.452 242.778,874.448 247.776,876.952 252.778,874.456 "/>
    <polygon style="fill: none; fill-opacity:0; stroke-width: 2; stroke: #000000" points="247.77,884.452 242.778,874.448 247.776,876.952 252.778,874.456 "/>
  </g>
  <g>
    <rect style="fill: #ffffff" x="226.042" y="886.688" width="43.45" height="38"/>
    <rect style="fill: none; fill-opacity:0; stroke-width: 2; stroke: #000000" x="226.042" y="886.688" width="43.45" height="38"/>
    <text font-size="12.8" style="fill: #000000;text-anchor:middle;font-family:sans-serif;font-style:normal;font-weight:normal" x="247.767" y="910.488">
      <tspan x="247.767" y="910.488">End</tspan>
    </text>
  </g>
  <g>
    <line style="fill: none; fill-opacity:0; stroke-width: 2; stroke: #000000" x1="248.534" y1="323.84" x2="248.303" y2="355.224"/>
    <polygon style="fill: #000000" points="248.248,362.724 243.322,352.687 248.303,355.224 253.322,352.761 "/>
    <polygon style="fill: none; fill-opacity:0; stroke-width: 2; stroke: #000000" points="248.248,362.724 243.322,352.687 248.303,355.224 253.322,352.761 "/>
  </g>
  <text font-size="12.8" style="fill: #000000;text-anchor:start;font-family:sans-serif;font-style:normal;font-weight:normal" x="251.656" y="863.684">
    <tspan x="251.656" y="863.684">Si</tspan>
  </text>
  <text font-size="12.7998" style="fill: #000000;text-anchor:start;font-family:sans-serif;font-style:normal;font-weight:normal" x="146" y="804">
    <tspan x="146" y="804">No</tspan>
  </text>
</svg>
