<?xml version="1.0" encoding="UTF-8" standalone="no"?>
<!DOCTYPE svg PUBLIC "-//W3C//DTD SVG 1.0//EN" "http://www.w3.org/TR/2001/PR-SVG-20010719/DTD/svg10.dtd">
<svg width="56cm" height="29cm" viewBox="-187 31 1117 571" xmlns="http://www.w3.org/2000/svg" xmlns:xlink="http://www.w3.org/1999/xlink">
  <g>
    <polygon style="fill: #ffffff" points="293.866,108 371.678,186.943 293.866,265.886 216.054,186.943 "/>
    <polygon style="fill: none; fill-opacity:0; stroke-width: 2; stroke: #000000" points="293.866,108 371.678,186.943 293.866,265.886 216.054,186.943 "/>
    <text font-size="12.8" style="fill: #000000;text-anchor:middle;font-family:sans-serif;font-style:normal;font-weight:normal" x="293.866" y="183.743">
      <tspan x="293.866" y="183.743">¿Opción del </tspan>
      <tspan x="293.866" y="199.743">menu?</tspan>
    </text>
  </g>
  <text font-size="12.8" style="fill: #000000;text-anchor:start;font-family:sans-serif;font-style:normal;font-weight:normal" x="293.866" y="186.943">
    <tspan x="293.866" y="186.943"></tspan>
  </text>
  <g>
    <rect style="fill: #ffffff" x="866.385" y="246.31" width="42.35" height="38"/>
    <rect style="fill: none; fill-opacity:0; stroke-width: 2; stroke: #000000" x="866.385" y="246.31" width="42.35" height="38"/>
    <text font-size="12.8" style="fill: #000000;text-anchor:middle;font-family:sans-serif;font-style:normal;font-weight:normal" x="887.56" y="270.11">
      <tspan x="887.56" y="270.11">exit</tspan>
    </text>
  </g>
  <text font-size="12.8" style="fill: #000000;text-anchor:start;font-family:sans-serif;font-style:normal;font-weight:normal" x="516.376" y="192.589">
    <tspan x="516.376" y="192.589"></tspan>
  </text>
  <g>
    <polyline style="fill: none; fill-opacity:0; stroke-width: 2; stroke: #000000" points="216.054,186.943 216.054,204.928 -46.3514,204.928 -46.3514,286.748 "/>
    <polygon style="fill: #000000" points="-46.3514,294.248 -51.3514,284.248 -46.3514,286.748 -41.3514,284.248 "/>
    <polygon style="fill: none; fill-opacity:0; stroke-width: 2; stroke: #000000" points="-46.3514,294.248 -51.3514,284.248 -46.3514,286.748 -41.3514,284.248 "/>
  </g>
  <g>
    <polyline style="fill: none; fill-opacity:0; stroke-width: 2; stroke: #000000" points="254.96,226.414 254.96,228.77 146.562,228.77 146.562,344.316 "/>
    <polygon style="fill: #000000" points="146.562,351.816 141.562,341.816 146.562,344.316 151.562,341.816 "/>
    <polygon style="fill: none; fill-opacity:0; stroke-width: 2; stroke: #000000" points="146.562,351.816 141.562,341.816 146.562,344.316 151.562,341.816 "/>
  </g>
  <g>
    <line style="fill: none; fill-opacity:0; stroke-width: 2; stroke: #000000" x1="293.866" y1="265.886" x2="293.886" y2="289.264"/>
    <polygon style="fill: #000000" points="293.892,296.764 288.884,286.768 293.886,289.264 298.884,286.76 "/>
    <polygon style="fill: none; fill-opacity:0; stroke-width: 2; stroke: #000000" points="293.892,296.764 288.884,286.768 293.886,289.264 298.884,286.76 "/>
  </g>
  <g>
    <polyline style="fill: none; fill-opacity:0; stroke-width: 2; stroke: #000000" points="332.772,226.414 332.772,261.958 441.526,261.958 441.526,269.113 "/>
    <polygon style="fill: #000000" points="441.526,276.613 436.526,266.613 441.526,269.113 446.526,266.613 "/>
    <polygon style="fill: none; fill-opacity:0; stroke-width: 2; stroke: #000000" points="441.526,276.613 436.526,266.613 441.526,269.113 446.526,266.613 "/>
  </g>
  <g>
    <polyline style="fill: none; fill-opacity:0; stroke-width: 2; stroke: #000000" points="371.678,186.943 371.678,186.763 887.56,186.763 887.56,236.574 "/>
    <polygon style="fill: #000000" points="887.56,244.074 882.56,234.074 887.56,236.574 892.56,234.074 "/>
    <polygon style="fill: none; fill-opacity:0; stroke-width: 2; stroke: #000000" points="887.56,244.074 882.56,234.074 887.56,236.574 892.56,234.074 "/>
  </g>
  <g>
    <line style="fill: none; fill-opacity:0; stroke-width: 2; stroke: #000000" x1="293.882" y1="80.7252" x2="293.872" y2="98.2637"/>
    <polygon style="fill: #000000" points="293.867,105.764 288.873,95.7608 293.872,98.2637 298.873,95.7667 "/>
    <polygon style="fill: none; fill-opacity:0; stroke-width: 2; stroke: #000000" points="293.867,105.764 288.873,95.7608 293.872,98.2637 298.873,95.7667 "/>
  </g>
  <g>
    <polygon style="fill: #ffffff" points="-46.8606,377.36 36.1642,424.967 -46.8606,472.575 -129.885,424.967 "/>
    <polygon style="fill: none; fill-opacity:0; stroke-width: 2; stroke: #000000" points="-46.8606,377.36 36.1642,424.967 -46.8606,472.575 -129.885,424.967 "/>
    <text font-size="12.8" style="fill: #000000;text-anchor:middle;font-family:sans-serif;font-style:normal;font-weight:normal" x="-46.8606" y="421.767">
      <tspan x="-46.8606" y="421.767">¿Opción del</tspan>
      <tspan x="-46.8606" y="437.767">menu2?</tspan>
    </text>
  </g>
  <g>
    <line style="fill: none; fill-opacity:0; stroke-width: 2; stroke: #000000" x1="-46.3514" y1="342.238" x2="-46.7195" y2="367.625"/>
    <polygon style="fill: #000000" points="-46.8282,375.124 -51.6827,365.053 -46.7195,367.625 -41.6837,365.198 "/>
    <polygon style="fill: none; fill-opacity:0; stroke-width: 2; stroke: #000000" points="-46.8282,375.124 -51.6827,365.053 -46.7195,367.625 -41.6837,365.198 "/>
  </g>
  <g>
    <polyline style="fill: none; fill-opacity:0; stroke-width: 2; stroke: #000000" points="-88.373,448.772 -88.373,449.048 -125.394,449.048 -125.394,476.072 "/>
    <polygon style="fill: #000000" points="-125.394,483.572 -130.394,473.572 -125.394,476.072 -120.394,473.572 "/>
    <polygon style="fill: none; fill-opacity:0; stroke-width: 2; stroke: #000000" points="-125.394,483.572 -130.394,473.572 -125.394,476.072 -120.394,473.572 "/>
  </g>
  <g>
    <polyline style="fill: none; fill-opacity:0; stroke-width: 2; stroke: #000000" points="-46.8606,472.576 -46.8606,485.082 -46.8284,485.082 -46.8284,529.228 "/>
    <polygon style="fill: #000000" points="-46.8284,536.728 -51.8284,526.728 -46.8284,529.228 -41.8284,526.728 "/>
    <polygon style="fill: none; fill-opacity:0; stroke-width: 2; stroke: #000000" points="-46.8284,536.728 -51.8284,526.728 -46.8284,529.228 -41.8284,526.728 "/>
  </g>
  <g>
    <polyline style="fill: none; fill-opacity:0; stroke-width: 2; stroke: #000000" points="-5.3482,448.772 55.3422,448.772 55.3422,147.471 245.224,147.471 "/>
    <polygon style="fill: #000000" points="252.724,147.471 242.724,152.471 245.224,147.471 242.724,142.471 "/>
    <polygon style="fill: none; fill-opacity:0; stroke-width: 2; stroke: #000000" points="252.724,147.471 242.724,152.471 245.224,147.471 242.724,142.471 "/>
  </g>
  <g>
    <ellipse style="fill: #ffffff" cx="293.883" cy="56.7574" rx="47.1646" ry="23.9678"/>
    <ellipse style="fill: none; fill-opacity:0; stroke-width: 2; stroke: #000000" cx="293.883" cy="56.7574" rx="47.1646" ry="23.9678"/>
    <text font-size="12.8" style="fill: #000000;text-anchor:middle;font-family:sans-serif;font-style:normal;font-weight:normal" x="293.883" y="61.5574">
      <tspan x="293.883" y="61.5574">Menu.sh</tspan>
    </text>
  </g>
  <g>
    <ellipse style="fill: #ffffff" cx="-46.3513" cy="319.361" rx="48.6669" ry="22.8774"/>
    <ellipse style="fill: none; fill-opacity:0; stroke-width: 2; stroke: #000000" cx="-46.3513" cy="319.361" rx="48.6669" ry="22.8774"/>
    <text font-size="12.8" style="fill: #000000;text-anchor:middle;font-family:sans-serif;font-style:normal;font-weight:normal" x="-46.3513" y="324.161">
      <tspan x="-46.3513" y="324.161">menu2.sh</tspan>
    </text>
  </g>
  <g>
    <ellipse style="fill: #ffffff" cx="-46.8285" cy="559.685" rx="51.7627" ry="20.7205"/>
    <ellipse style="fill: none; fill-opacity:0; stroke-width: 2; stroke: #000000" cx="-46.8285" cy="559.685" rx="51.7627" ry="20.7205"/>
    <text font-size="12.8" style="fill: #000000;text-anchor:middle;font-family:sans-serif;font-style:normal;font-weight:normal" x="-46.8285" y="564.485">
      <tspan x="-46.8285" y="564.485">record.sh</tspan>
    </text>
  </g>
  <g>
    <ellipse style="fill: #ffffff" cx="-125.394" cy="513.739" rx="60.3757" ry="27.9314"/>
    <ellipse style="fill: none; fill-opacity:0; stroke-width: 2; stroke: #000000" cx="-125.394" cy="513.739" rx="60.3757" ry="27.9314"/>
    <text font-size="12.8" style="fill: #000000;text-anchor:middle;font-family:sans-serif;font-style:normal;font-weight:normal" x="-125.394" y="518.539">
      <tspan x="-125.394" y="518.539">saveSession.sh</tspan>
    </text>
  </g>
  <g>
    <ellipse style="fill: #ffffff" cx="146.562" cy="382.734" rx="70.0802" ry="28.6821"/>
    <ellipse style="fill: none; fill-opacity:0; stroke-width: 2; stroke: #000000" cx="146.562" cy="382.734" rx="70.0802" ry="28.6821"/>
    <text font-size="12.8" style="fill: #000000;text-anchor:middle;font-family:sans-serif;font-style:normal;font-weight:normal" x="146.562" y="387.534">
      <tspan x="146.562" y="387.534">fileGeneration.sh</tspan>
    </text>
  </g>
  <g>
    <ellipse style="fill: #ffffff" cx="293.894" cy="325.564" rx="58.6165" ry="26.5644"/>
    <ellipse style="fill: none; fill-opacity:0; stroke-width: 2; stroke: #000000" cx="293.894" cy="325.564" rx="58.6165" ry="26.5644"/>
    <text font-size="12.8" style="fill: #000000;text-anchor:middle;font-family:sans-serif;font-style:normal;font-weight:normal" x="293.894" y="330.364">
      <tspan x="293.894" y="330.364">playStation.sh</tspan>
    </text>
  </g>
  <text font-size="12.8" style="fill: #000000;text-anchor:start;font-family:sans-serif;font-style:normal;font-weight:normal" x="203.976" y="201.968">
    <tspan x="203.976" y="201.968">1</tspan>
  </text>
  <text font-size="12.8" style="fill: #000000;text-anchor:start;font-family:sans-serif;font-style:normal;font-weight:normal" x="236.784" y="226.888">
    <tspan x="236.784" y="226.888">2</tspan>
  </text>
  <text font-size="12.8" style="fill: #000000;text-anchor:start;font-family:sans-serif;font-style:normal;font-weight:normal" x="283.876" y="274.21">
    <tspan x="283.876" y="274.21">3</tspan>
  </text>
  <text font-size="12.8" style="fill: #000000;text-anchor:start;font-family:sans-serif;font-style:normal;font-weight:normal" x="333.74" y="234.392">
    <tspan x="333.74" y="234.392">4</tspan>
  </text>
  <text font-size="12.8" style="fill: #000000;text-anchor:start;font-family:sans-serif;font-style:normal;font-weight:normal" x="353.314" y="219.47">
    <tspan x="353.314" y="219.47">5</tspan>
  </text>
  <text font-size="12.8" style="fill: #000000;text-anchor:start;font-family:sans-serif;font-style:normal;font-weight:normal" x="373.654" y="183.736">
    <tspan x="373.654" y="183.736">6</tspan>
  </text>
  <text font-size="12.8" style="fill: #000000;text-anchor:start;font-family:sans-serif;font-style:normal;font-weight:normal" x="-117.587" y="448.246">
    <tspan x="-117.587" y="448.246">1</tspan>
  </text>
  <text font-size="12.8" style="fill: #000000;text-anchor:start;font-family:sans-serif;font-style:normal;font-weight:normal" x="-41.5152" y="481.366">
    <tspan x="-41.5152" y="481.366">2</tspan>
  </text>
  <text font-size="12.8" style="fill: #000000;text-anchor:start;font-family:sans-serif;font-style:normal;font-weight:normal" x="19.7279" y="447.01">
    <tspan x="19.7279" y="447.01">3</tspan>
  </text>
  <g>
    <ellipse style="fill: #ffffff" cx="441.347" cy="576.484" rx="67.6264" ry="24.5667"/>
    <ellipse style="fill: none; fill-opacity:0; stroke-width: 2; stroke: #000000" cx="441.347" cy="576.484" rx="67.6264" ry="24.5667"/>
    <text font-size="12.8" style="fill: #000000;text-anchor:middle;font-family:sans-serif;font-style:normal;font-weight:normal" x="441.347" y="581.284">
      <tspan x="441.347" y="581.284">fromInternet.sh</tspan>
    </text>
  </g>
  <g>
    <ellipse style="fill: #ffffff" cx="525.821" cy="515.872" rx="60.0673" ry="22.5336"/>
    <ellipse style="fill: none; fill-opacity:0; stroke-width: 2; stroke: #000000" cx="525.821" cy="515.872" rx="60.0673" ry="22.5336"/>
    <text font-size="12.8" style="fill: #000000;text-anchor:middle;font-family:sans-serif;font-style:normal;font-weight:normal" x="525.821" y="520.672">
      <tspan x="525.821" y="520.672">fromPath.sh</tspan>
    </text>
  </g>
  <g>
    <polyline style="fill: none; fill-opacity:0; stroke-width: 2; stroke: #000000" points="441.39,452.424 441.39,503.792 441.347,503.792 441.347,542.181 "/>
    <polygon style="fill: #000000" points="441.347,549.681 436.347,539.681 441.347,542.181 446.347,539.681 "/>
    <polygon style="fill: none; fill-opacity:0; stroke-width: 2; stroke: #000000" points="441.347,549.681 436.347,539.681 441.347,542.181 446.347,539.681 "/>
  </g>
  <g>
    <polyline style="fill: none; fill-opacity:0; stroke-width: 2; stroke: #000000" points="482.902,428.62 482.902,460.493 525.821,460.493 525.821,483.602 "/>
    <polygon style="fill: #000000" points="525.821,491.102 520.821,481.102 525.821,483.602 530.821,481.102 "/>
    <polygon style="fill: none; fill-opacity:0; stroke-width: 2; stroke: #000000" points="525.821,491.102 520.821,481.102 525.821,483.602 530.821,481.102 "/>
  </g>
  <text font-size="12.8" style="fill: #000000;text-anchor:start;font-family:sans-serif;font-style:normal;font-weight:normal" x="389.403" y="425.725">
    <tspan x="389.403" y="425.725">1</tspan>
  </text>
  <text font-size="12.8" style="fill: #000000;text-anchor:start;font-family:sans-serif;font-style:normal;font-weight:normal" x="430.504" y="443.136">
    <tspan x="430.504" y="443.136">2</tspan>
  </text>
  <g>
    <polyline style="fill: none; fill-opacity:0; stroke-width: 2; stroke: #000000" points="524.414,404.816 537.89,404.816 537.89,167.207 361.96,167.207 "/>
    <polygon style="fill: #000000" points="354.46,167.207 364.46,162.207 361.96,167.207 364.46,172.207 "/>
    <polygon style="fill: none; fill-opacity:0; stroke-width: 2; stroke: #000000" points="354.46,167.207 364.46,162.207 361.96,167.207 364.46,172.207 "/>
  </g>
  <g>
    <ellipse style="fill: #ffffff" cx="736.734" cy="489.558" rx="46.343" ry="24.2132"/>
    <ellipse style="fill: none; fill-opacity:0; stroke-width: 2; stroke: #000000" cx="736.734" cy="489.558" rx="46.343" ry="24.2132"/>
    <text font-size="12.8" style="fill: #000000;text-anchor:middle;font-family:sans-serif;font-style:normal;font-weight:normal" x="736.734" y="494.358">
      <tspan x="736.734" y="494.358">credits.sh</tspan>
    </text>
  </g>
  <g>
    <ellipse style="fill: #ffffff" cx="859.313" cy="456.108" rx="69.6335" ry="36.5031"/>
    <ellipse style="fill: none; fill-opacity:0; stroke-width: 2; stroke: #000000" cx="859.313" cy="456.108" rx="69.6335" ry="36.5031"/>
    <text font-size="12.8" style="fill: #000000;text-anchor:middle;font-family:sans-serif;font-style:normal;font-weight:normal" x="859.313" y="460.908">
      <tspan x="859.313" y="460.908">installationGuide.sh</tspan>
    </text>
  </g>
  <text font-size="12.8" style="fill: #000000;text-anchor:start;font-family:sans-serif;font-style:normal;font-weight:normal" x="759.157" y="330.704">
    <tspan x="759.157" y="330.704"></tspan>
  </text>
  <g>
    <ellipse style="fill: #ffffff" cx="630.762" cy="452.304" rx="57.1156" ry="24.8383"/>
    <ellipse style="fill: none; fill-opacity:0; stroke-width: 2; stroke: #000000" cx="630.762" cy="452.304" rx="57.1156" ry="24.8383"/>
    <text font-size="12.8" style="fill: #000000;text-anchor:middle;font-family:sans-serif;font-style:normal;font-weight:normal" x="630.762" y="457.104">
      <tspan x="630.762" y="457.104">userGuide.sh</tspan>
    </text>
  </g>
  <text font-size="12.8" style="fill: #000000;text-anchor:start;font-family:sans-serif;font-style:normal;font-weight:normal" x="685.006" y="388.471">
    <tspan x="685.006" y="388.471">1</tspan>
  </text>
  <text font-size="12.8" style="fill: #000000;text-anchor:start;font-family:sans-serif;font-style:normal;font-weight:normal" x="783.271" y="390.78">
    <tspan x="783.271" y="390.78">2</tspan>
  </text>
  <text font-size="12.8" style="fill: #000000;text-anchor:start;font-family:sans-serif;font-style:normal;font-weight:normal" x="741.467" y="413.743">
    <tspan x="741.467" y="413.743">3</tspan>
  </text>
  <text font-size="12.8" style="fill: #000000;text-anchor:start;font-family:sans-serif;font-style:normal;font-weight:normal" x="809.391" y="347.175">
    <tspan x="809.391" y="347.175">4</tspan>
  </text>
  <text font-size="12.8" style="fill: #000000;text-anchor:start;font-family:sans-serif;font-style:normal;font-weight:normal" x="-46.8606" y="424.968">
    <tspan x="-46.8606" y="424.968"></tspan>
  </text>
  <text font-size="12.8" style="fill: #000000;text-anchor:start;font-family:sans-serif;font-style:normal;font-weight:normal" x="-46.8606" y="424.968">
    <tspan x="-46.8606" y="424.968"></tspan>
  </text>
  <text font-size="12.8" style="fill: #000000;text-anchor:start;font-family:sans-serif;font-style:normal;font-weight:normal" x="485.383" y="416.535">
    <tspan x="485.383" y="416.535">3</tspan>
  </text>
  <g>
    <ellipse style="fill: #ffffff" cx="330.939" cy="513.211" rx="68.4745" ry="25.6875"/>
    <ellipse style="fill: none; fill-opacity:0; stroke-width: 2; stroke: #000000" cx="330.939" cy="513.211" rx="68.4745" ry="25.6875"/>
    <text font-size="12.8" style="fill: #000000;text-anchor:middle;font-family:sans-serif;font-style:normal;font-weight:normal" x="330.939" y="518.011">
      <tspan x="330.939" y="518.011">downloadSoft.sh</tspan>
    </text>
  </g>
  <g>
    <polyline style="fill: none; fill-opacity:0; stroke-width: 2; stroke: #000000" points="399.877,428.62 399.877,457.586 330.939,457.586 330.939,477.788 "/>
    <polygon style="fill: #000000" points="330.939,485.288 325.939,475.288 330.939,477.788 335.939,475.288 "/>
    <polygon style="fill: none; fill-opacity:0; stroke-width: 2; stroke: #000000" points="330.939,485.288 325.939,475.288 330.939,477.788 335.939,475.288 "/>
  </g>
  <text font-size="12.8" style="fill: #000000;text-anchor:start;font-family:sans-serif;font-style:normal;font-weight:normal" x="524.414" y="404.816">
    <tspan x="524.414" y="404.816">4</tspan>
  </text>
  <g>
    <polygon style="fill: #ffffff" points="441.39,357.209 524.414,404.816 441.39,452.424 358.365,404.816 "/>
    <polygon style="fill: none; fill-opacity:0; stroke-width: 2; stroke: #000000" points="441.39,357.209 524.414,404.816 441.39,452.424 358.365,404.816 "/>
    <text font-size="12.8" style="fill: #000000;text-anchor:middle;font-family:sans-serif;font-style:normal;font-weight:normal" x="441.39" y="401.616">
      <tspan x="441.39" y="401.616">¿Opción del</tspan>
      <tspan x="441.39" y="417.616">menu4?</tspan>
    </text>
  </g>
  <g>
    <ellipse style="fill: #ffffff" cx="441.526" cy="301.726" rx="48.6669" ry="22.8774"/>
    <ellipse style="fill: none; fill-opacity:0; stroke-width: 2; stroke: #000000" cx="441.526" cy="301.726" rx="48.6669" ry="22.8774"/>
    <text font-size="12.8" style="fill: #000000;text-anchor:middle;font-family:sans-serif;font-style:normal;font-weight:normal" x="441.526" y="306.526">
      <tspan x="441.526" y="306.526">menu4.sh</tspan>
    </text>
  </g>
  <g>
    <line style="fill: none; fill-opacity:0; stroke-width: 2; stroke: #000000" x1="441.467" y1="325.593" x2="441.414" y2="347.473"/>
    <polygon style="fill: #000000" points="441.395,354.973 436.42,344.961 441.414,347.473 446.42,344.985 "/>
    <polygon style="fill: none; fill-opacity:0; stroke-width: 2; stroke: #000000" points="441.395,354.973 436.42,344.961 441.414,347.473 446.42,344.985 "/>
  </g>
  <text font-size="12.7998" style="fill: #000000;text-anchor:start;font-family:sans-serif;font-style:normal;font-weight:normal" x="441.526" y="301.726">
    <tspan x="441.526" y="301.726"></tspan>
  </text>
  <g>
    <polygon style="fill: #ffffff" points="737.161,307.664 820.186,355.271 737.161,402.879 654.137,355.271 "/>
    <polygon style="fill: none; fill-opacity:0; stroke-width: 2; stroke: #000000" points="737.161,307.664 820.186,355.271 737.161,402.879 654.137,355.271 "/>
    <text font-size="12.8" style="fill: #000000;text-anchor:middle;font-family:sans-serif;font-style:normal;font-weight:normal" x="737.161" y="352.071">
      <tspan x="737.161" y="352.071">¿Opción del</tspan>
      <tspan x="737.161" y="368.071">menu3?</tspan>
    </text>
  </g>
  <g>
    <ellipse style="fill: #ffffff" cx="735.767" cy="266.293" rx="48.6669" ry="22.8774"/>
    <ellipse style="fill: none; fill-opacity:0; stroke-width: 2; stroke: #000000" cx="735.767" cy="266.293" rx="48.6669" ry="22.8774"/>
    <text font-size="12.8" style="fill: #000000;text-anchor:middle;font-family:sans-serif;font-style:normal;font-weight:normal" x="735.767" y="271.093">
      <tspan x="735.767" y="271.093">menu3.sh</tspan>
    </text>
  </g>
  <g>
    <polyline style="fill: none; fill-opacity:0; stroke-width: 2; stroke: #000000" points="352.225,206.679 352.225,228.309 735.767,228.309 735.767,233.679 "/>
    <polygon style="fill: #000000" points="735.767,241.179 730.767,231.179 735.767,233.679 740.767,231.179 "/>
    <polygon style="fill: none; fill-opacity:0; stroke-width: 2; stroke: #000000" points="735.767,241.179 730.767,231.179 735.767,233.679 740.767,231.179 "/>
  </g>
  <g>
    <polyline style="fill: none; fill-opacity:0; stroke-width: 2; stroke: #000000" points="695.649,379.075 695.649,396.661 630.762,396.661 630.762,417.729 "/>
    <polygon style="fill: #000000" points="630.762,425.229 625.762,415.229 630.762,417.729 635.762,415.229 "/>
    <polygon style="fill: none; fill-opacity:0; stroke-width: 2; stroke: #000000" points="630.762,425.229 625.762,415.229 630.762,417.729 635.762,415.229 "/>
  </g>
  <g>
    <polyline style="fill: none; fill-opacity:0; stroke-width: 2; stroke: #000000" points="820.186,355.271 820.186,148.655 332.772,148.655 332.772,157.207 "/>
    <polygon style="fill: #000000" points="332.772,149.707 327.772,139.707 332.772,142.207 337.772,139.707 "/>
    <polygon style="fill: none; fill-opacity:0; stroke-width: 2; stroke: #000000" points="332.772,149.707 327.772,139.707 332.772,142.207 337.772,139.707 "/>
  </g>
  <g>
    <polyline style="fill: none; fill-opacity:0; stroke-width: 2; stroke: #000000" points="778.674,379.075 778.674,400.42 859.313,400.42 859.313,409.869 "/>
    <polygon style="fill: #000000" points="859.313,417.369 854.313,407.369 859.313,409.869 864.313,407.369 "/>
    <polygon style="fill: none; fill-opacity:0; stroke-width: 2; stroke: #000000" points="859.313,417.369 854.313,407.369 859.313,409.869 864.313,407.369 "/>
  </g>
  <g>
    <line style="fill: none; fill-opacity:0; stroke-width: 2; stroke: #000000" x1="737.161" y1="402.879" x2="736.801" y2="455.609"/>
    <polygon style="fill: #000000" points="736.75,463.109 731.818,453.075 736.801,455.609 741.818,453.144 "/>
    <polygon style="fill: none; fill-opacity:0; stroke-width: 2; stroke: #000000" points="736.75,463.109 731.818,453.075 736.801,455.609 741.818,453.144 "/>
  </g>
  <g>
    <line style="fill: none; fill-opacity:0; stroke-width: 2; stroke: #000000" x1="735.767" y1="289.17" x2="735.948" y2="297.769"/>
    <polygon style="fill: #000000" points="736.107,305.267 730.897,295.375 735.948,297.769 740.895,295.164 "/>
    <polygon style="fill: none; fill-opacity:0; stroke-width: 2; stroke: #000000" points="736.107,305.267 730.897,295.375 735.948,297.769 740.895,295.164 "/>
  </g>
  <text font-size="12.7998" style="fill: #000000;text-anchor:start;font-family:sans-serif;font-style:normal;font-weight:normal" x="735.767" y="266.293">
    <tspan x="735.767" y="266.293"></tspan>
  </text>
  <text font-size="12.8" style="fill: #000000;text-anchor:start;font-family:sans-serif;font-style:normal;font-weight:normal" x="387.979" y="445.673">
    <tspan x="387.979" y="445.673">1</tspan>
  </text>
  <text font-size="12.8" style="fill: #000000;text-anchor:start;font-family:sans-serif;font-style:normal;font-weight:normal" x="447.354" y="467.115">
    <tspan x="447.354" y="467.115">2</tspan>
  </text>
  <text font-size="12.8" style="fill: #000000;text-anchor:start;font-family:sans-serif;font-style:normal;font-weight:normal" x="488.434" y="443.571">
    <tspan x="488.434" y="443.571">3</tspan>
  </text>
</svg>
