<?xml version="1.0" encoding="UTF-8" standalone="no"?>
<!DOCTYPE svg PUBLIC "-//W3C//DTD SVG 1.0//EN" "http://www.w3.org/TR/2001/PR-SVG-20010719/DTD/svg10.dtd">
<svg width="12cm" height="16cm" viewBox="152 80 222 318" xmlns="http://www.w3.org/2000/svg" xmlns:xlink="http://www.w3.org/1999/xlink">
  <g>
    <ellipse style="fill: #ffffff" cx="263.034" cy="104.229" rx="65.2866" ry="22.5556"/>
    <ellipse style="fill: none; fill-opacity:0; stroke-width: 2; stroke: #000000" cx="263.034" cy="104.229" rx="65.2866" ry="22.5556"/>
    <text font-size="12.8" style="fill: #000000;text-anchor:middle;font-family:sans-serif;font-style:normal;font-weight:normal" x="263.034" y="109.029">
      <tspan x="263.034" y="109.029">playStation.sh</tspan>
    </text>
  </g>
  <g>
    <rect style="fill: #ffffff" x="197.3" y="166" width="132.45" height="54"/>
    <rect style="fill: none; fill-opacity:0; stroke-width: 2; stroke: #000000" x="197.3" y="166" width="132.45" height="54"/>
    <text font-size="12.8" style="fill: #000000;text-anchor:middle;font-family:sans-serif;font-style:normal;font-weight:normal" x="263.525" y="189.8">
      <tspan x="263.525" y="189.8">Selección de sesión</tspan>
      <tspan x="263.525" y="205.8">a reproducir</tspan>
    </text>
  </g>
  <g>
    <rect style="fill: #ffffff" x="239.886" y="359.624" width="42.8" height="38"/>
    <rect style="fill: none; fill-opacity:0; stroke-width: 2; stroke: #000000" x="239.886" y="359.624" width="42.8" height="38"/>
    <text font-size="12.8" style="fill: #000000;text-anchor:middle;font-family:sans-serif;font-style:normal;font-weight:normal" x="261.286" y="383.424">
      <tspan x="261.286" y="383.424">Exit</tspan>
    </text>
  </g>
  <g>
    <line style="fill: none; fill-opacity:0; stroke-width: 2; stroke: #000000" x1="263.034" y1="126.784" x2="263.403" y2="156.265"/>
    <polygon style="fill: #000000" points="263.497,163.764 258.372,153.827 263.403,156.265 268.371,153.702 "/>
    <polygon style="fill: none; fill-opacity:0; stroke-width: 2; stroke: #000000" points="263.497,163.764 258.372,153.827 263.403,156.265 268.371,153.702 "/>
  </g>
  <g>
    <rect style="fill: #ffffff" x="153.416" y="266.648" width="219.1" height="54"/>
    <rect style="fill: none; fill-opacity:0; stroke-width: 2; stroke: #000000" x="153.416" y="266.648" width="219.1" height="54"/>
    <text font-size="12.8" style="fill: #000000;text-anchor:middle;font-family:sans-serif;font-style:normal;font-weight:normal" x="262.966" y="290.448">
      <tspan x="262.966" y="290.448">Se lanza instancia de vlc</tspan>
      <tspan x="262.966" y="306.448">con el modo master/slave</tspan>
    </text>
  </g>
  <g>
    <line style="fill: none; fill-opacity:0; stroke-width: 2; stroke: #000000" x1="263.525" y1="220" x2="263.083" y2="256.913"/>
    <polygon style="fill: #000000" points="262.993,264.412 258.113,254.353 263.083,256.913 268.112,254.473 "/>
    <polygon style="fill: none; fill-opacity:0; stroke-width: 2; stroke: #000000" points="262.993,264.412 258.113,254.353 263.083,256.913 268.112,254.473 "/>
  </g>
  <g>
    <line style="fill: none; fill-opacity:0; stroke-width: 2; stroke: #000000" x1="262.413" y1="321.634" x2="261.874" y2="348.88"/>
    <polygon style="fill: #000000" points="261.726,356.379 256.924,346.282 261.874,348.88 266.922,346.48 "/>
    <polygon style="fill: none; fill-opacity:0; stroke-width: 2; stroke: #000000" points="261.726,356.379 256.924,346.282 261.874,348.88 266.922,346.48 "/>
  </g>
  <text font-size="12.7998" style="fill: #000000;text-anchor:start;font-family:sans-serif;font-style:normal;font-weight:normal" x="263.525" y="193">
    <tspan x="263.525" y="193"></tspan>
  </text>
</svg>
