<?xml version="1.0" encoding="UTF-8" standalone="no"?>
<!DOCTYPE svg PUBLIC "-//W3C//DTD SVG 1.0//EN" "http://www.w3.org/TR/2001/PR-SVG-20010719/DTD/svg10.dtd">
<svg width="9cm" height="20cm" viewBox="52 -59 173 389" xmlns="http://www.w3.org/2000/svg" xmlns:xlink="http://www.w3.org/1999/xlink">
  <g>
    <rect style="fill: #ffffff" x="100.076" y="31.3" width="114.35" height="38"/>
    <rect style="fill: none; fill-opacity:0; stroke-width: 2; stroke: #000000" x="100.076" y="31.3" width="114.35" height="38"/>
    <text font-size="12.8" style="fill: #000000;text-anchor:middle;font-family:sans-serif;font-style:normal;font-weight:normal" x="157.251" y="55.1">
      <tspan x="157.251" y="55.1">ffmpeg &amp;&amp; N++</tspan>
    </text>
  </g>
  <g>
    <polygon style="fill: #ffffff" points="157.068,106.798 209.865,139.717 157.068,172.635 104.271,139.717 "/>
    <polygon style="fill: none; fill-opacity:0; stroke-width: 2; stroke: #000000" points="157.068,106.798 209.865,139.717 157.068,172.635 104.271,139.717 "/>
    <text font-size="12.8" style="fill: #000000;text-anchor:middle;font-family:sans-serif;font-style:normal;font-weight:normal" x="157.068" y="144.517">
      <tspan x="157.068" y="144.517">N&lt;10?</tspan>
    </text>
  </g>
  <polyline style="fill: none; fill-opacity:0; stroke-width: 2; stroke: #000000" points="104.271,139.716 53.74,140.282 "/>
  <g>
    <polyline style="fill: none; fill-opacity:0; stroke-width: 2; stroke: #000000" points="53.74,140.532 53.5,140.532 53.5,50.3 90.3403,50.3 "/>
    <polygon style="fill: #000000" points="97.8403,50.3 87.8403,55.3 90.3403,50.3 87.8403,45.3 "/>
    <polygon style="fill: none; fill-opacity:0; stroke-width: 2; stroke: #000000" points="97.8403,50.3 87.8403,55.3 90.3403,50.3 87.8403,45.3 "/>
  </g>
  <g>
    <line style="fill: none; fill-opacity:0; stroke-width: 2; stroke: #000000" x1="157.251" y1="69.3" x2="157.115" y2="97.062"/>
    <polygon style="fill: #000000" points="157.079,104.562 152.128,94.5376 157.115,97.062 162.128,94.5866 "/>
    <polygon style="fill: none; fill-opacity:0; stroke-width: 2; stroke: #000000" points="157.079,104.562 152.128,94.5376 157.115,97.062 162.128,94.5866 "/>
  </g>
  <g>
    <line style="fill: none; fill-opacity:0; stroke-width: 2; stroke: #000000" x1="157.068" y1="172.634" x2="157.126" y2="201.934"/>
    <polygon style="fill: #000000" points="157.141,209.434 152.121,199.444 157.126,201.934 162.121,199.424 "/>
    <polygon style="fill: none; fill-opacity:0; stroke-width: 2; stroke: #000000" points="157.141,209.434 152.121,199.444 157.126,201.934 162.121,199.424 "/>
  </g>
  <g>
    <ellipse style="fill: #ffffff" cx="157.145" cy="233.656" rx="49.3391" ry="21.9865"/>
    <ellipse style="fill: none; fill-opacity:0; stroke-width: 2; stroke: #000000" cx="157.145" cy="233.656" rx="49.3391" ry="21.9865"/>
    <text font-size="12.8" style="fill: #000000;text-anchor:middle;font-family:sans-serif;font-style:normal;font-weight:normal" x="157.145" y="238.456">
      <tspan x="157.145" y="238.456">concat.sh</tspan>
    </text>
  </g>
  <text font-size="12.8" style="fill: #000000;text-anchor:start;font-family:sans-serif;font-style:normal;font-weight:normal" x="82.5984" y="133.314">
    <tspan x="82.5984" y="133.314">No</tspan>
  </text>
  <text font-size="12.8" style="fill: #000000;text-anchor:start;font-family:sans-serif;font-style:normal;font-weight:normal" x="160.147" y="189.642">
    <tspan x="160.147" y="189.642">Si</tspan>
  </text>
  <g>
    <rect style="fill: #ffffff" x="135.106" y="290.722" width="43.45" height="38"/>
    <rect style="fill: none; fill-opacity:0; stroke-width: 2; stroke: #000000" x="135.106" y="290.722" width="43.45" height="38"/>
    <text font-size="12.8" style="fill: #000000;text-anchor:middle;font-family:sans-serif;font-style:normal;font-weight:normal" x="156.831" y="314.522">
      <tspan x="156.831" y="314.522">End</tspan>
    </text>
  </g>
  <g>
    <line style="fill: none; fill-opacity:0; stroke-width: 2; stroke: #000000" x1="157.145" y1="255.644" x2="156.918" y2="280.986"/>
    <polygon style="fill: #000000" points="156.851,288.486 151.941,278.442 156.918,280.986 161.941,278.531 "/>
    <polygon style="fill: none; fill-opacity:0; stroke-width: 2; stroke: #000000" points="156.851,288.486 151.941,278.442 156.918,280.986 161.941,278.531 "/>
  </g>
  <g>
    <line style="fill: none; fill-opacity:0; stroke-width: 2; stroke: #000000" x1="157.078" y1="-9.80364" x2="157.21" y2="21.564"/>
    <polygon style="fill: #000000" points="157.242,29.064 152.2,19.0851 157.21,21.564 162.2,19.0429 "/>
    <polygon style="fill: none; fill-opacity:0; stroke-width: 2; stroke: #000000" points="157.242,29.064 152.2,19.0851 157.21,21.564 162.2,19.0429 "/>
  </g>
  <g>
    <ellipse style="fill: #ffffff" cx="157.078" cy="-33.803" rx="66.5954" ry="23.9994"/>
    <ellipse style="fill: none; fill-opacity:0; stroke-width: 2; stroke: #000000" cx="157.078" cy="-33.803" rx="66.5954" ry="23.9994"/>
    <text font-size="12.8" style="fill: #000000;text-anchor:middle;font-family:sans-serif;font-style:normal;font-weight:normal" x="157.078" y="-29.003">
      <tspan x="157.078" y="-29.003">videoRecord.sh</tspan>
    </text>
  </g>
</svg>
