<?xml version="1.0" encoding="UTF-8" standalone="no"?>
<!DOCTYPE svg PUBLIC "-//W3C//DTD SVG 1.0//EN" "http://www.w3.org/TR/2001/PR-SVG-20010719/DTD/svg10.dtd">
<svg width="54cm" height="28cm" viewBox="-187 31 1065 552" xmlns="http://www.w3.org/2000/svg" xmlns:xlink="http://www.w3.org/1999/xlink">
  <g>
    <polygon style="fill: #ffffff" points="293.866,108 371.678,186.943 293.866,265.886 216.054,186.943 "/>
    <polygon style="fill: none; fill-opacity:0; stroke-width: 2; stroke: #000000" points="293.866,108 371.678,186.943 293.866,265.886 216.054,186.943 "/>
    <text font-size="12.8" style="fill: #000000;text-anchor:middle;font-family:sans-serif;font-style:normal;font-weight:normal" x="293.866" y="183.743">
      <tspan x="293.866" y="183.743">¿Opción del </tspan>
      <tspan x="293.866" y="199.743">menu?</tspan>
    </text>
  </g>
  <text font-size="12.8" style="fill: #000000;text-anchor:start;font-family:sans-serif;font-style:normal;font-weight:normal" x="293.866" y="186.943">
    <tspan x="293.866" y="186.943"></tspan>
  </text>
  <g>
    <rect style="fill: #ffffff" x="803.136" y="250.672" width="42.35" height="38"/>
    <rect style="fill: none; fill-opacity:0; stroke-width: 2; stroke: #000000" x="803.136" y="250.672" width="42.35" height="38"/>
    <text font-size="12.8" style="fill: #000000;text-anchor:middle;font-family:sans-serif;font-style:normal;font-weight:normal" x="824.311" y="274.472">
      <tspan x="824.311" y="274.472">exit</tspan>
    </text>
  </g>
  <text font-size="12.8" style="fill: #000000;text-anchor:start;font-family:sans-serif;font-style:normal;font-weight:normal" x="516.376" y="192.589">
    <tspan x="516.376" y="192.589"></tspan>
  </text>
  <g>
    <polyline style="fill: none; fill-opacity:0; stroke-width: 2; stroke: #000000" points="216.054,186.943 216.054,204.928 -46.3514,204.928 -46.3514,286.748 "/>
    <polygon style="fill: #000000" points="-46.3514,294.248 -51.3514,284.248 -46.3514,286.748 -41.3514,284.248 "/>
    <polygon style="fill: none; fill-opacity:0; stroke-width: 2; stroke: #000000" points="-46.3514,294.248 -51.3514,284.248 -46.3514,286.748 -41.3514,284.248 "/>
  </g>
  <g>
    <polyline style="fill: none; fill-opacity:0; stroke-width: 2; stroke: #000000" points="254.96,226.414 254.96,228.77 146.562,228.77 146.562,344.316 "/>
    <polygon style="fill: #000000" points="146.562,351.816 141.562,341.816 146.562,344.316 151.562,341.816 "/>
    <polygon style="fill: none; fill-opacity:0; stroke-width: 2; stroke: #000000" points="146.562,351.816 141.562,341.816 146.562,344.316 151.562,341.816 "/>
  </g>
  <g>
    <line style="fill: none; fill-opacity:0; stroke-width: 2; stroke: #000000" x1="293.866" y1="265.886" x2="293.886" y2="289.264"/>
    <polygon style="fill: #000000" points="293.892,296.764 288.884,286.768 293.886,289.264 298.884,286.76 "/>
    <polygon style="fill: none; fill-opacity:0; stroke-width: 2; stroke: #000000" points="293.892,296.764 288.884,286.768 293.886,289.264 298.884,286.76 "/>
  </g>
  <g>
    <polyline style="fill: none; fill-opacity:0; stroke-width: 2; stroke: #000000" points="332.772,226.414 332.772,261.958 439.128,261.958 439.128,352.94 "/>
    <polygon style="fill: #000000" points="439.128,360.44 434.128,350.44 439.128,352.94 444.128,350.44 "/>
    <polygon style="fill: none; fill-opacity:0; stroke-width: 2; stroke: #000000" points="439.128,360.44 434.128,350.44 439.128,352.94 444.128,350.44 "/>
  </g>
  <g>
    <polyline style="fill: none; fill-opacity:0; stroke-width: 2; stroke: #000000" points="371.678,186.943 371.678,186.763 824.312,186.763 824.312,240.936 "/>
    <polygon style="fill: #000000" points="824.312,248.436 819.312,238.436 824.312,240.936 829.312,238.436 "/>
    <polygon style="fill: none; fill-opacity:0; stroke-width: 2; stroke: #000000" points="824.312,248.436 819.312,238.436 824.312,240.936 829.312,238.436 "/>
  </g>
  <g>
    <polyline style="fill: none; fill-opacity:0; stroke-width: 2; stroke: #000000" points="352.224,206.678 352.224,236.28 682.822,236.28 682.822,264.62 "/>
    <polygon style="fill: #000000" points="682.822,272.12 677.822,262.12 682.822,264.62 687.822,262.12 "/>
    <polygon style="fill: none; fill-opacity:0; stroke-width: 2; stroke: #000000" points="682.822,272.12 677.822,262.12 682.822,264.62 687.822,262.12 "/>
  </g>
  <g>
    <line style="fill: none; fill-opacity:0; stroke-width: 2; stroke: #000000" x1="293.882" y1="80.7252" x2="293.872" y2="98.2637"/>
    <polygon style="fill: #000000" points="293.867,105.764 288.873,95.7608 293.872,98.2637 298.873,95.7667 "/>
    <polygon style="fill: none; fill-opacity:0; stroke-width: 2; stroke: #000000" points="293.867,105.764 288.873,95.7608 293.872,98.2637 298.873,95.7667 "/>
  </g>
  <g>
    <polygon style="fill: #ffffff" points="-46.8606,377.36 36.1642,424.967 -46.8606,472.575 -129.885,424.967 "/>
    <polygon style="fill: none; fill-opacity:0; stroke-width: 2; stroke: #000000" points="-46.8606,377.36 36.1642,424.967 -46.8606,472.575 -129.885,424.967 "/>
    <text font-size="12.8" style="fill: #000000;text-anchor:middle;font-family:sans-serif;font-style:normal;font-weight:normal" x="-46.8606" y="421.767">
      <tspan x="-46.8606" y="421.767">¿Opción del</tspan>
      <tspan x="-46.8606" y="437.767">menu2?</tspan>
    </text>
  </g>
  <g>
    <line style="fill: none; fill-opacity:0; stroke-width: 2; stroke: #000000" x1="-46.3514" y1="342.238" x2="-46.7195" y2="367.625"/>
    <polygon style="fill: #000000" points="-46.8282,375.124 -51.6827,365.053 -46.7195,367.625 -41.6837,365.198 "/>
    <polygon style="fill: none; fill-opacity:0; stroke-width: 2; stroke: #000000" points="-46.8282,375.124 -51.6827,365.053 -46.7195,367.625 -41.6837,365.198 "/>
  </g>
  <g>
    <polyline style="fill: none; fill-opacity:0; stroke-width: 2; stroke: #000000" points="-88.373,448.772 -88.373,449.048 -125.394,449.048 -125.394,476.072 "/>
    <polygon style="fill: #000000" points="-125.394,483.572 -130.394,473.572 -125.394,476.072 -120.394,473.572 "/>
    <polygon style="fill: none; fill-opacity:0; stroke-width: 2; stroke: #000000" points="-125.394,483.572 -130.394,473.572 -125.394,476.072 -120.394,473.572 "/>
  </g>
  <g>
    <polyline style="fill: none; fill-opacity:0; stroke-width: 2; stroke: #000000" points="-46.8606,472.576 -46.8606,485.082 -46.8284,485.082 -46.8284,529.228 "/>
    <polygon style="fill: #000000" points="-46.8284,536.728 -51.8284,526.728 -46.8284,529.228 -41.8284,526.728 "/>
    <polygon style="fill: none; fill-opacity:0; stroke-width: 2; stroke: #000000" points="-46.8284,536.728 -51.8284,526.728 -46.8284,529.228 -41.8284,526.728 "/>
  </g>
  <g>
    <polyline style="fill: none; fill-opacity:0; stroke-width: 2; stroke: #000000" points="-5.3482,448.772 55.3422,448.772 55.3422,147.471 245.224,147.471 "/>
    <polygon style="fill: #000000" points="252.724,147.471 242.724,152.471 245.224,147.471 242.724,142.471 "/>
    <polygon style="fill: none; fill-opacity:0; stroke-width: 2; stroke: #000000" points="252.724,147.471 242.724,152.471 245.224,147.471 242.724,142.471 "/>
  </g>
  <g>
    <ellipse style="fill: #ffffff" cx="293.883" cy="56.7574" rx="47.1646" ry="23.9678"/>
    <ellipse style="fill: none; fill-opacity:0; stroke-width: 2; stroke: #000000" cx="293.883" cy="56.7574" rx="47.1646" ry="23.9678"/>
    <text font-size="12.8" style="fill: #000000;text-anchor:middle;font-family:sans-serif;font-style:normal;font-weight:normal" x="293.883" y="61.5574">
      <tspan x="293.883" y="61.5574">Menu.sh</tspan>
    </text>
  </g>
  <g>
    <ellipse style="fill: #ffffff" cx="-46.3513" cy="319.361" rx="48.6669" ry="22.8774"/>
    <ellipse style="fill: none; fill-opacity:0; stroke-width: 2; stroke: #000000" cx="-46.3513" cy="319.361" rx="48.6669" ry="22.8774"/>
    <text font-size="12.8" style="fill: #000000;text-anchor:middle;font-family:sans-serif;font-style:normal;font-weight:normal" x="-46.3513" y="324.161">
      <tspan x="-46.3513" y="324.161">menu2.sh</tspan>
    </text>
  </g>
  <g>
    <ellipse style="fill: #ffffff" cx="-46.8285" cy="559.685" rx="51.7627" ry="20.7205"/>
    <ellipse style="fill: none; fill-opacity:0; stroke-width: 2; stroke: #000000" cx="-46.8285" cy="559.685" rx="51.7627" ry="20.7205"/>
    <text font-size="12.8" style="fill: #000000;text-anchor:middle;font-family:sans-serif;font-style:normal;font-weight:normal" x="-46.8285" y="564.485">
      <tspan x="-46.8285" y="564.485">record.sh</tspan>
    </text>
  </g>
  <g>
    <ellipse style="fill: #ffffff" cx="-125.394" cy="513.739" rx="60.3757" ry="27.9314"/>
    <ellipse style="fill: none; fill-opacity:0; stroke-width: 2; stroke: #000000" cx="-125.394" cy="513.739" rx="60.3757" ry="27.9314"/>
    <text font-size="12.8" style="fill: #000000;text-anchor:middle;font-family:sans-serif;font-style:normal;font-weight:normal" x="-125.394" y="518.539">
      <tspan x="-125.394" y="518.539">saveSession.sh</tspan>
    </text>
  </g>
  <g>
    <ellipse style="fill: #ffffff" cx="146.562" cy="382.734" rx="70.0802" ry="28.6821"/>
    <ellipse style="fill: none; fill-opacity:0; stroke-width: 2; stroke: #000000" cx="146.562" cy="382.734" rx="70.0802" ry="28.6821"/>
    <text font-size="12.8" style="fill: #000000;text-anchor:middle;font-family:sans-serif;font-style:normal;font-weight:normal" x="146.562" y="387.534">
      <tspan x="146.562" y="387.534">fileGeneration.sh</tspan>
    </text>
  </g>
  <g>
    <ellipse style="fill: #ffffff" cx="293.894" cy="325.564" rx="58.6165" ry="26.5644"/>
    <ellipse style="fill: none; fill-opacity:0; stroke-width: 2; stroke: #000000" cx="293.894" cy="325.564" rx="58.6165" ry="26.5644"/>
    <text font-size="12.8" style="fill: #000000;text-anchor:middle;font-family:sans-serif;font-style:normal;font-weight:normal" x="293.894" y="330.364">
      <tspan x="293.894" y="330.364">playStation.sh</tspan>
    </text>
  </g>
  <g>
    <ellipse style="fill: #ffffff" cx="439.128" cy="396.309" rx="81.2538" ry="33.6325"/>
    <ellipse style="fill: none; fill-opacity:0; stroke-width: 2; stroke: #000000" cx="439.128" cy="396.309" rx="81.2538" ry="33.6325"/>
    <text font-size="12.8" style="fill: #000000;text-anchor:middle;font-family:sans-serif;font-style:normal;font-weight:normal" x="439.128" y="401.109">
      <tspan x="439.128" y="401.109">softwareInstallation.sh</tspan>
    </text>
  </g>
  <g>
    <ellipse style="fill: #ffffff" cx="682.823" cy="308.894" rx="54.4712" ry="34.5379"/>
    <ellipse style="fill: none; fill-opacity:0; stroke-width: 2; stroke: #000000" cx="682.823" cy="308.894" rx="54.4712" ry="34.5379"/>
    <text font-size="12.8" style="fill: #000000;text-anchor:middle;font-family:sans-serif;font-style:normal;font-weight:normal" x="682.823" y="313.694">
      <tspan x="682.823" y="313.694">userManual.sh</tspan>
    </text>
  </g>
  <text font-size="12.8" style="fill: #000000;text-anchor:start;font-family:sans-serif;font-style:normal;font-weight:normal" x="203.976" y="201.968">
    <tspan x="203.976" y="201.968">1</tspan>
  </text>
  <text font-size="12.8" style="fill: #000000;text-anchor:start;font-family:sans-serif;font-style:normal;font-weight:normal" x="236.784" y="226.888">
    <tspan x="236.784" y="226.888">2</tspan>
  </text>
  <text font-size="12.8" style="fill: #000000;text-anchor:start;font-family:sans-serif;font-style:normal;font-weight:normal" x="283.876" y="274.21">
    <tspan x="283.876" y="274.21">3</tspan>
  </text>
  <text font-size="12.8" style="fill: #000000;text-anchor:start;font-family:sans-serif;font-style:normal;font-weight:normal" x="333.74" y="234.392">
    <tspan x="333.74" y="234.392">4</tspan>
  </text>
  <text font-size="12.8" style="fill: #000000;text-anchor:start;font-family:sans-serif;font-style:normal;font-weight:normal" x="353.314" y="219.47">
    <tspan x="353.314" y="219.47">5</tspan>
  </text>
  <text font-size="12.8" style="fill: #000000;text-anchor:start;font-family:sans-serif;font-style:normal;font-weight:normal" x="373.654" y="183.736">
    <tspan x="373.654" y="183.736">6</tspan>
  </text>
  <text font-size="12.8" style="fill: #000000;text-anchor:start;font-family:sans-serif;font-style:normal;font-weight:normal" x="-117.587" y="448.246">
    <tspan x="-117.587" y="448.246">1</tspan>
  </text>
  <text font-size="12.8" style="fill: #000000;text-anchor:start;font-family:sans-serif;font-style:normal;font-weight:normal" x="-41.5152" y="481.366">
    <tspan x="-41.5152" y="481.366">2</tspan>
  </text>
  <text font-size="12.8" style="fill: #000000;text-anchor:start;font-family:sans-serif;font-style:normal;font-weight:normal" x="19.7279" y="447.01">
    <tspan x="19.7279" y="447.01">3</tspan>
  </text>
  <g>
    <ellipse style="fill: #ffffff" cx="438.968" cy="557.699" rx="67.6264" ry="24.5667"/>
    <ellipse style="fill: none; fill-opacity:0; stroke-width: 2; stroke: #000000" cx="438.968" cy="557.699" rx="67.6264" ry="24.5667"/>
    <text font-size="12.8" style="fill: #000000;text-anchor:middle;font-family:sans-serif;font-style:normal;font-weight:normal" x="438.968" y="562.499">
      <tspan x="438.968" y="562.499">fromInternet.sh</tspan>
    </text>
  </g>
  <g>
    <ellipse style="fill: #ffffff" cx="521.821" cy="492.872" rx="60.0673" ry="22.5336"/>
    <ellipse style="fill: none; fill-opacity:0; stroke-width: 2; stroke: #000000" cx="521.821" cy="492.872" rx="60.0673" ry="22.5336"/>
    <text font-size="12.8" style="fill: #000000;text-anchor:middle;font-family:sans-serif;font-style:normal;font-weight:normal" x="521.821" y="497.672">
      <tspan x="521.821" y="497.672">fromPath.sh</tspan>
    </text>
  </g>
  <g>
    <polyline style="fill: none; fill-opacity:0; stroke-width: 2; stroke: #000000" points="439.128,429.941 439.128,481.537 438.968,481.537 438.968,523.397 "/>
    <polygon style="fill: #000000" points="438.968,530.897 433.968,520.897 438.968,523.397 443.968,520.897 "/>
    <polygon style="fill: none; fill-opacity:0; stroke-width: 2; stroke: #000000" points="438.968,530.897 433.968,520.897 438.968,523.397 443.968,520.897 "/>
  </g>
  <g>
    <polyline style="fill: none; fill-opacity:0; stroke-width: 2; stroke: #000000" points="470.222,427.381 470.222,448.859 521.821,448.859 521.821,460.602 "/>
    <polygon style="fill: #000000" points="521.821,468.102 516.821,458.102 521.821,460.602 526.821,458.102 "/>
    <polygon style="fill: none; fill-opacity:0; stroke-width: 2; stroke: #000000" points="521.821,468.102 516.821,458.102 521.821,460.602 526.821,458.102 "/>
  </g>
  <text font-size="12.8" style="fill: #000000;text-anchor:start;font-family:sans-serif;font-style:normal;font-weight:normal" x="403.279" y="440.019">
    <tspan x="403.279" y="440.019">1</tspan>
  </text>
  <text font-size="12.8" style="fill: #000000;text-anchor:start;font-family:sans-serif;font-style:normal;font-weight:normal" x="430.503" y="443.135">
    <tspan x="430.503" y="443.135">2</tspan>
  </text>
  <g>
    <polyline style="fill: none; fill-opacity:0; stroke-width: 2; stroke: #000000" points="520.382,396.308 537.89,396.308 537.89,167.207 361.96,167.207 "/>
    <polygon style="fill: #000000" points="354.46,167.207 364.46,162.207 361.96,167.207 364.46,172.207 "/>
    <polygon style="fill: none; fill-opacity:0; stroke-width: 2; stroke: #000000" points="354.46,167.207 364.46,162.207 361.96,167.207 364.46,172.207 "/>
  </g>
  <g>
    <ellipse style="fill: #ffffff" cx="709.133" cy="436.123" rx="46.343" ry="24.2132"/>
    <ellipse style="fill: none; fill-opacity:0; stroke-width: 2; stroke: #000000" cx="709.133" cy="436.123" rx="46.343" ry="24.2132"/>
    <text font-size="12.8" style="fill: #000000;text-anchor:middle;font-family:sans-serif;font-style:normal;font-weight:normal" x="709.133" y="440.923">
      <tspan x="709.133" y="440.923">credits.sh</tspan>
    </text>
  </g>
  <g>
    <ellipse style="fill: #ffffff" cx="807.031" cy="375.469" rx="69.6335" ry="36.5031"/>
    <ellipse style="fill: none; fill-opacity:0; stroke-width: 2; stroke: #000000" cx="807.031" cy="375.469" rx="69.6335" ry="36.5031"/>
    <text font-size="12.8" style="fill: #000000;text-anchor:middle;font-family:sans-serif;font-style:normal;font-weight:normal" x="807.031" y="380.269">
      <tspan x="807.031" y="380.269">installationGuide.sh</tspan>
    </text>
  </g>
  <text font-size="12.8" style="fill: #000000;text-anchor:start;font-family:sans-serif;font-style:normal;font-weight:normal" x="682.822" y="308.894">
    <tspan x="682.822" y="308.894"></tspan>
  </text>
  <g>
    <ellipse style="fill: #ffffff" cx="617.824" cy="393.622" rx="57.1156" ry="24.8383"/>
    <ellipse style="fill: none; fill-opacity:0; stroke-width: 2; stroke: #000000" cx="617.824" cy="393.622" rx="57.1156" ry="24.8383"/>
    <text font-size="12.8" style="fill: #000000;text-anchor:middle;font-family:sans-serif;font-style:normal;font-weight:normal" x="617.824" y="398.422">
      <tspan x="617.824" y="398.422">userGuide.sh</tspan>
    </text>
  </g>
  <g>
    <polyline style="fill: none; fill-opacity:0; stroke-width: 2; stroke: #000000" points="661.976,340.802 661.976,339.656 623.89,339.656 623.89,339.588 617.822,339.588 617.822,359.048 "/>
    <polygon style="fill: #000000" points="617.822,366.548 612.822,356.548 617.822,359.048 622.822,356.548 "/>
    <polygon style="fill: none; fill-opacity:0; stroke-width: 2; stroke: #000000" points="617.822,366.548 612.822,356.548 617.822,359.048 622.822,356.548 "/>
  </g>
  <g>
    <polyline style="fill: none; fill-opacity:0; stroke-width: 2; stroke: #000000" points="682.823,343.432 682.823,377.671 709.133,377.671 709.133,402.174 "/>
    <polygon style="fill: #000000" points="709.133,409.674 704.133,399.674 709.133,402.174 714.133,399.674 "/>
    <polygon style="fill: none; fill-opacity:0; stroke-width: 2; stroke: #000000" points="709.133,409.674 704.133,399.674 709.133,402.174 714.133,399.674 "/>
  </g>
  <text font-size="12.8" style="fill: #000000;text-anchor:start;font-family:sans-serif;font-style:normal;font-weight:normal" x="631.938" y="336.402">
    <tspan x="631.938" y="336.402">1</tspan>
  </text>
  <text font-size="12.8" style="fill: #000000;text-anchor:start;font-family:sans-serif;font-style:normal;font-weight:normal" x="743.236" y="318.514">
    <tspan x="743.236" y="318.514">2</tspan>
  </text>
  <text font-size="12.8" style="fill: #000000;text-anchor:start;font-family:sans-serif;font-style:normal;font-weight:normal" x="689.89" y="356.624">
    <tspan x="689.89" y="356.624">3</tspan>
  </text>
  <g>
    <polyline style="fill: none; fill-opacity:0; stroke-width: 2; stroke: #000000" points="721.34,284.472 721.34,149.666 332.772,149.666 332.772,157.207 "/>
    <polygon style="fill: #000000" points="332.772,149.707 327.772,139.707 332.772,142.207 337.772,139.707 "/>
    <polygon style="fill: none; fill-opacity:0; stroke-width: 2; stroke: #000000" points="332.772,149.707 327.772,139.707 332.772,142.207 337.772,139.707 "/>
  </g>
  <text font-size="12.8" style="fill: #000000;text-anchor:start;font-family:sans-serif;font-style:normal;font-weight:normal" x="711.9" y="276.836">
    <tspan x="711.9" y="276.836">4</tspan>
  </text>
  <text font-size="12.8" style="fill: #000000;text-anchor:start;font-family:sans-serif;font-style:normal;font-weight:normal" x="-46.8606" y="424.968">
    <tspan x="-46.8606" y="424.968"></tspan>
  </text>
  <text font-size="12.8" style="fill: #000000;text-anchor:start;font-family:sans-serif;font-style:normal;font-weight:normal" x="-46.8606" y="424.968">
    <tspan x="-46.8606" y="424.968"></tspan>
  </text>
  <text font-size="12.7998" style="fill: #000000;text-anchor:start;font-family:sans-serif;font-style:normal;font-weight:normal" x="473.091" y="440.337">
    <tspan x="473.091" y="440.337">3</tspan>
  </text>
  <g>
    <ellipse style="fill: #ffffff" cx="326.939" cy="490.212" rx="68.4745" ry="25.6875"/>
    <ellipse style="fill: none; fill-opacity:0; stroke-width: 2; stroke: #000000" cx="326.939" cy="490.212" rx="68.4745" ry="25.6875"/>
    <text font-size="12.8" style="fill: #000000;text-anchor:middle;font-family:sans-serif;font-style:normal;font-weight:normal" x="326.939" y="495.012">
      <tspan x="326.939" y="495.012">downloadSoft.sh</tspan>
    </text>
  </g>
  <g>
    <polyline style="fill: none; fill-opacity:0; stroke-width: 2; stroke: #000000" points="411.931,428.756 411.931,446.64 326.939,446.64 326.939,454.788 "/>
    <polygon style="fill: #000000" points="326.939,462.288 321.939,452.288 326.939,454.788 331.939,452.288 "/>
    <polygon style="fill: none; fill-opacity:0; stroke-width: 2; stroke: #000000" points="326.939,462.288 321.939,452.288 326.939,454.788 331.939,452.288 "/>
  </g>
  <text font-size="12.7998" style="fill: #000000;text-anchor:start;font-family:sans-serif;font-style:normal;font-weight:normal" x="523.023" y="392.488">
    <tspan x="523.023" y="392.488">4</tspan>
  </text>
  <g>
    <polyline style="fill: none; fill-opacity:0; stroke-width: 2; stroke: #000000" points="733.148,322.111 754.148,322.111 754.148,322.082 807.031,322.082 807.031,329.23 "/>
    <polygon style="fill: #000000" points="807.031,336.73 802.031,326.73 807.031,329.23 812.031,326.73 "/>
    <polygon style="fill: none; fill-opacity:0; stroke-width: 2; stroke: #000000" points="807.031,336.73 802.031,326.73 807.031,329.23 812.031,326.73 "/>
  </g>
</svg>
