<?xml version="1.0" encoding="UTF-8" standalone="no"?>
<!DOCTYPE svg PUBLIC "-//W3C//DTD SVG 1.0//EN" "http://www.w3.org/TR/2001/PR-SVG-20010719/DTD/svg10.dtd">
<svg width="7cm" height="11cm" viewBox="196 81 135 218" xmlns="http://www.w3.org/2000/svg" xmlns:xlink="http://www.w3.org/1999/xlink">
  <g>
    <ellipse style="fill: #ffffff" cx="263.034" cy="104.229" rx="63.9034" ry="22.0777"/>
    <ellipse style="fill: none; fill-opacity:0; stroke-width: 2; stroke: #000000" cx="263.034" cy="104.229" rx="63.9034" ry="22.0777"/>
    <text font-size="12.7998" style="fill: #000000;text-anchor:middle;font-family:sans-serif;font-style:normal;font-weight:normal" x="263.034" y="109.029">
      <tspan x="263.034" y="109.029">launchVLC.sh</tspan>
    </text>
  </g>
  <g>
    <rect style="fill: #ffffff" x="197.3" y="166" width="132.45" height="54"/>
    <rect style="fill: none; fill-opacity:0; stroke-width: 2; stroke: #000000" x="197.3" y="166" width="132.45" height="54"/>
    <text font-size="12.7998" style="fill: #000000;text-anchor:middle;font-family:sans-serif;font-style:normal;font-weight:normal" x="263.525" y="189.8">
      <tspan x="263.525" y="189.8">Se genera instancia</tspan>
      <tspan x="263.525" y="205.8">de VLC</tspan>
    </text>
  </g>
  <g>
    <rect style="fill: #ffffff" x="243" y="260" width="42.8" height="38"/>
    <rect style="fill: none; fill-opacity:0; stroke-width: 2; stroke: #000000" x="243" y="260" width="42.8" height="38"/>
    <text font-size="12.7998" style="fill: #000000;text-anchor:middle;font-family:sans-serif;font-style:normal;font-weight:normal" x="264.4" y="283.8">
      <tspan x="264.4" y="283.8">Exit</tspan>
    </text>
  </g>
  <g>
    <line style="fill: none; fill-opacity:0; stroke-width: 2; stroke: #000000" x1="263.034" y1="126.307" x2="263.405" y2="156.265"/>
    <polygon style="fill: #000000" points="263.497,163.764 258.374,153.827 263.405,156.265 268.373,153.703 "/>
    <polygon style="fill: none; fill-opacity:0; stroke-width: 2; stroke: #000000" points="263.497,163.764 258.374,153.827 263.405,156.265 268.373,153.703 "/>
  </g>
  <g>
    <line style="fill: none; fill-opacity:0; stroke-width: 2; stroke: #000000" x1="263.525" y1="220" x2="264.187" y2="250.266"/>
    <polygon style="fill: #000000" points="264.351,257.764 259.134,247.876 264.187,250.266 269.131,247.658 "/>
    <polygon style="fill: none; fill-opacity:0; stroke-width: 2; stroke: #000000" points="264.351,257.764 259.134,247.876 264.187,250.266 269.131,247.658 "/>
  </g>
</svg>
