<?xml version="1.0" encoding="UTF-8" standalone="no"?>
<!DOCTYPE svg PUBLIC "-//W3C//DTD SVG 1.0//EN" "http://www.w3.org/TR/2001/PR-SVG-20010719/DTD/svg10.dtd">
<svg width="36cm" height="23cm" viewBox="683 56 712 459" xmlns="http://www.w3.org/2000/svg" xmlns:xlink="http://www.w3.org/1999/xlink">
  <g>
    <path style="fill: #ffffff" d="M 786.659 138.855 L 931.159,138.855 C 952.834,144.255 960.059,146.955 960.059,152.355 C 960.059,157.755 952.834,160.455 931.159,165.855 L 786.659,165.855 L 757.759,152.355 L 786.659,138.855z"/>
    <path style="fill: none; fill-opacity:0; stroke-width: 2; stroke: #000000" d="M 786.659 138.855 L 931.159,138.855 C 952.834,144.255 960.059,146.955 960.059,152.355 C 960.059,157.755 952.834,160.455 931.159,165.855 L 786.659,165.855 L 757.759,152.355 L 786.659,138.855"/>
    <text font-size="12.7998" style="fill: #000000;text-anchor:middle;font-family:sans-serif;font-style:normal;font-weight:normal" x="858.909" y="157.355">
      <tspan x="858.909" y="157.355">Grabación de la estación</tspan>
    </text>
  </g>
  <g>
    <path style="fill: #ffffff" d="M 712.241 58.4933 L 823.191,58.4933 C 838.51,58.4933 850.929,66.9999 850.929,77.4933 C 850.929,87.9867 838.51,96.4933 823.191,96.4933 L 712.241,96.4933 C 696.922,96.4933 684.504,87.9867 684.504,77.4933 C 684.504,66.9999 696.922,58.4933 712.241,58.4933z"/>
    <path style="fill: none; fill-opacity:0; stroke-width: 2; stroke: #000000" d="M 712.241 58.4933 L 823.191,58.4933 C 838.51,58.4933 850.929,66.9999 850.929,77.4933 C 850.929,87.9867 838.51,96.4933 823.191,96.4933 L 712.241,96.4933 C 696.922,96.4933 684.504,87.9867 684.504,77.4933 C 684.504,66.9999 696.922,58.4933 712.241,58.4933"/>
    <text font-size="12.7998" style="fill: #000000;text-anchor:middle;font-family:sans-serif;font-style:normal;font-weight:normal" x="767.716" y="74.4933">
      <tspan x="767.716" y="74.4933">Crar nueva sesión </tspan>
      <tspan x="767.716" y="90.4933">de grabación</tspan>
    </text>
  </g>
  <g>
    <path style="fill: #ffffff" d="M 895.287 57.3787 L 993.387,57.3787 C 1006.93,57.3787 1017.91,65.8853 1017.91,76.3787 C 1017.91,86.8721 1006.93,95.3787 993.387,95.3787 L 895.287,95.3787 C 881.742,95.3787 870.762,86.8721 870.762,76.3787 C 870.762,65.8853 881.742,57.3787 895.287,57.3787z"/>
    <path style="fill: none; fill-opacity:0; stroke-width: 2; stroke: #000000" d="M 895.287 57.3787 L 993.387,57.3787 C 1006.93,57.3787 1017.91,65.8853 1017.91,76.3787 C 1017.91,86.8721 1006.93,95.3787 993.387,95.3787 L 895.287,95.3787 C 881.742,95.3787 870.762,86.8721 870.762,76.3787 C 870.762,65.8853 881.742,57.3787 895.287,57.3787"/>
    <text font-size="12.7998" style="fill: #000000;text-anchor:middle;font-family:sans-serif;font-style:normal;font-weight:normal" x="944.337" y="73.3787">
      <tspan x="944.337" y="73.3787">Iniciar sesión de</tspan>
      <tspan x="944.337" y="89.3787">grabación</tspan>
    </text>
  </g>
  <g>
    <path style="fill: #ffffff" d="M 1014.16 124.114 L 1149.06,124.114 C 1169.29,131.714 1176.04,135.514 1176.04,143.114 C 1176.04,150.714 1169.29,154.514 1149.06,162.114 L 1014.16,162.114 L 987.177,143.114 L 1014.16,124.114z"/>
    <path style="fill: none; fill-opacity:0; stroke-width: 2; stroke: #000000" d="M 1014.16 124.114 L 1149.06,124.114 C 1169.29,131.714 1176.04,135.514 1176.04,143.114 C 1176.04,150.714 1169.29,154.514 1149.06,162.114 L 1014.16,162.114 L 987.177,143.114 L 1014.16,124.114"/>
    <text font-size="12.7998" style="fill: #000000;text-anchor:middle;font-family:sans-serif;font-style:normal;font-weight:normal" x="1081.61" y="140.114">
      <tspan x="1081.61" y="140.114">Generación de los </tspan>
      <tspan x="1081.61" y="156.114">archivos reproduciblesl</tspan>
    </text>
  </g>
  <g>
    <path style="fill: #ffffff" d="M 762.921 323.602 L 863.221,323.602 C 878.266,331.202 883.281,335.002 883.281,342.602 C 883.281,350.202 878.266,354.002 863.221,361.602 L 762.921,361.602 L 742.861,342.602 L 762.921,323.602z"/>
    <path style="fill: none; fill-opacity:0; stroke-width: 2; stroke: #000000" d="M 762.921 323.602 L 863.221,323.602 C 878.266,331.202 883.281,335.002 883.281,342.602 C 883.281,350.202 878.266,354.002 863.221,361.602 L 762.921,361.602 L 742.861,342.602 L 762.921,323.602"/>
    <text font-size="12.7998" style="fill: #000000;text-anchor:middle;font-family:sans-serif;font-style:normal;font-weight:normal" x="813.071" y="339.602">
      <tspan x="813.071" y="339.602">Reproducción de</tspan>
      <tspan x="813.071" y="355.602">la estación</tspan>
    </text>
  </g>
  <g>
    <path style="fill: #ffffff" d="M 917.232 331.954 L 1002.33,331.954 C 1015.1,339.554 1019.35,343.354 1019.35,350.954 C 1019.35,358.554 1015.1,362.354 1002.33,369.954 L 917.232,369.954 L 900.212,350.954 L 917.232,331.954z"/>
    <path style="fill: none; fill-opacity:0; stroke-width: 2; stroke: #000000" d="M 917.232 331.954 L 1002.33,331.954 C 1015.1,339.554 1019.35,343.354 1019.35,350.954 C 1019.35,358.554 1015.1,362.354 1002.33,369.954 L 917.232,369.954 L 900.212,350.954 L 917.232,331.954"/>
    <text font-size="12.7998" style="fill: #000000;text-anchor:middle;font-family:sans-serif;font-style:normal;font-weight:normal" x="959.782" y="347.954">
      <tspan x="959.782" y="347.954">Instalación de</tspan>
      <tspan x="959.782" y="363.954">software</tspan>
    </text>
  </g>
  <g>
    <path style="fill: #ffffff" d="M 926.426 475.591 L 993.176,475.591 C 1002.39,475.591 1009.86,484.097 1009.86,494.591 C 1009.86,505.084 1002.39,513.591 993.176,513.591 L 926.426,513.591 C 917.21,513.591 909.738,505.084 909.738,494.591 C 909.738,484.097 917.21,475.591 926.426,475.591z"/>
    <path style="fill: none; fill-opacity:0; stroke-width: 2; stroke: #000000" d="M 926.426 475.591 L 993.176,475.591 C 1002.39,475.591 1009.86,484.097 1009.86,494.591 C 1009.86,505.084 1002.39,513.591 993.176,513.591 L 926.426,513.591 C 917.21,513.591 909.738,505.084 909.738,494.591 C 909.738,484.097 917.21,475.591 926.426,475.591"/>
    <text font-size="12.7998" style="fill: #000000;text-anchor:middle;font-family:sans-serif;font-style:normal;font-weight:normal" x="959.801" y="491.591">
      <tspan x="959.801" y="491.591">Descargar </tspan>
      <tspan x="959.801" y="507.591">software</tspan>
    </text>
  </g>
  <g>
    <path style="fill: #ffffff" d="M 824.898 424.464 L 916.148,424.464 C 928.747,424.464 938.96,432.97 938.96,443.464 C 938.96,453.957 928.747,462.464 916.148,462.464 L 824.898,462.464 C 812.299,462.464 802.085,453.957 802.085,443.464 C 802.085,432.97 812.299,424.464 824.898,424.464z"/>
    <path style="fill: none; fill-opacity:0; stroke-width: 2; stroke: #000000" d="M 824.898 424.464 L 916.148,424.464 C 928.747,424.464 938.96,432.97 938.96,443.464 C 938.96,453.957 928.747,462.464 916.148,462.464 L 824.898,462.464 C 812.299,462.464 802.085,453.957 802.085,443.464 C 802.085,432.97 812.299,424.464 824.898,424.464"/>
    <text font-size="12.7998" style="fill: #000000;text-anchor:middle;font-family:sans-serif;font-style:normal;font-weight:normal" x="870.523" y="440.464">
      <tspan x="870.523" y="440.464">Instalación con</tspan>
      <tspan x="870.523" y="456.464">conexión</tspan>
    </text>
  </g>
  <g>
    <path style="fill: #ffffff" d="M 1000.08 422.736 L 1091.33,422.736 C 1103.93,422.736 1114.15,431.243 1114.15,441.736 C 1114.15,452.23 1103.93,460.736 1091.33,460.736 L 1000.08,460.736 C 987.484,460.736 977.271,452.23 977.271,441.736 C 977.271,431.243 987.484,422.736 1000.08,422.736z"/>
    <path style="fill: none; fill-opacity:0; stroke-width: 2; stroke: #000000" d="M 1000.08 422.736 L 1091.33,422.736 C 1103.93,422.736 1114.15,431.243 1114.15,441.736 C 1114.15,452.23 1103.93,460.736 1091.33,460.736 L 1000.08,460.736 C 987.484,460.736 977.271,452.23 977.271,441.736 C 977.271,431.243 987.484,422.736 1000.08,422.736"/>
    <text font-size="12.7998" style="fill: #000000;text-anchor:middle;font-family:sans-serif;font-style:normal;font-weight:normal" x="1045.71" y="438.736">
      <tspan x="1045.71" y="438.736">Instalación sin</tspan>
      <tspan x="1045.71" y="454.736">conexión</tspan>
    </text>
  </g>
  <g>
    <path style="fill: #ffffff" d="M 1061.1 315.84 L 1146.2,315.84 C 1158.97,323.44 1163.22,327.24 1163.22,334.84 C 1163.22,342.44 1158.97,346.24 1146.2,353.84 L 1061.1,353.84 L 1044.08,334.84 L 1061.1,315.84z"/>
    <path style="fill: none; fill-opacity:0; stroke-width: 2; stroke: #000000" d="M 1061.1 315.84 L 1146.2,315.84 C 1158.97,323.44 1163.22,327.24 1163.22,334.84 C 1163.22,342.44 1158.97,346.24 1146.2,353.84 L 1061.1,353.84 L 1044.08,334.84 L 1061.1,315.84"/>
    <text font-size="12.7998" style="fill: #000000;text-anchor:middle;font-family:sans-serif;font-style:normal;font-weight:normal" x="1103.65" y="339.84">
      <tspan x="1103.65" y="339.84">Información</tspan>
    </text>
  </g>
  <g>
    <rect style="fill: #ffffff" x="863.392" y="223.406" width="192" height="44"/>
    <rect style="fill: none; fill-opacity:0; stroke-width: 2; stroke: #000000" x="863.392" y="223.406" width="192" height="44"/>
    <text font-size="12.7998" style="fill: #000000;text-anchor:middle;font-family:sans-serif;font-style:normal;font-weight:normal" x="959.392" y="250.206">
      <tspan x="959.392" y="250.206">MENU PRINCIPAL</tspan>
    </text>
  </g>
  <g>
    <line style="fill: none; fill-opacity:0; stroke-width: 2; stroke: #000000" x1="911.392" y1="223.406" x2="865.469" y2="173.049"/>
    <polygon style="fill: #000000" points="860.416,167.507 870.848,171.527 865.469,173.049 863.459,178.265 "/>
    <polygon style="fill: none; fill-opacity:0; stroke-width: 2; stroke: #000000" points="860.416,167.507 870.848,171.527 865.469,173.049 863.459,178.265 "/>
  </g>
  <g>
    <line style="fill: none; fill-opacity:0; stroke-width: 2; stroke: #000000" x1="767.716" y1="96.4933" x2="815.067" y2="132.918"/>
    <polygon style="fill: #000000" points="821.012,137.491 810.037,135.357 815.067,132.918 816.134,127.431 "/>
    <polygon style="fill: none; fill-opacity:0; stroke-width: 2; stroke: #000000" points="821.012,137.491 810.037,135.357 815.067,132.918 816.134,127.431 "/>
  </g>
  <g>
    <line style="fill: none; fill-opacity:0; stroke-width: 2; stroke: #000000" x1="944.337" y1="95.3787" x2="902.336" y2="132.415"/>
    <polygon style="fill: #000000" points="896.711,137.376 900.905,127.012 902.336,132.415 907.518,134.512 "/>
    <polygon style="fill: none; fill-opacity:0; stroke-width: 2; stroke: #000000" points="896.711,137.376 900.905,127.012 902.336,132.415 907.518,134.512 "/>
  </g>
  <g>
    <line style="fill: none; fill-opacity:0; stroke-width: 2; stroke: #000000" x1="1007.39" y1="223.406" x2="1074.1" y2="168.314"/>
    <polygon style="fill: #000000" points="1079.88,163.538 1075.36,173.761 1074.1,168.314 1068.99,166.051 "/>
    <polygon style="fill: none; fill-opacity:0; stroke-width: 2; stroke: #000000" points="1079.88,163.538 1075.36,173.761 1074.1,168.314 1068.99,166.051 "/>
  </g>
  <g>
    <line style="fill: none; fill-opacity:0; stroke-width: 2; stroke: #000000" x1="911.392" y1="267.406" x2="821.524" y2="318.77"/>
    <polygon style="fill: #000000" points="815.013,322.492 821.213,313.189 821.524,318.77 826.176,321.871 "/>
    <polygon style="fill: none; fill-opacity:0; stroke-width: 2; stroke: #000000" points="815.013,322.492 821.213,313.189 821.524,318.77 826.176,321.871 "/>
  </g>
  <g>
    <line style="fill: none; fill-opacity:0; stroke-width: 2; stroke: #000000" x1="959.392" y1="267.406" x2="959.723" y2="322.218"/>
    <polygon style="fill: #000000" points="959.768,329.717 954.708,319.748 959.723,322.218 964.708,319.687 "/>
    <polygon style="fill: none; fill-opacity:0; stroke-width: 2; stroke: #000000" points="959.768,329.717 954.708,319.748 959.723,322.218 964.708,319.687 "/>
  </g>
  <g>
    <line style="fill: none; fill-opacity:0; stroke-width: 2; stroke: #000000" x1="870.523" y1="424.464" x2="930.911" y2="376.044"/>
    <polygon style="fill: #000000" points="936.762,371.352 932.088,381.509 930.911,376.044 925.833,373.707 "/>
    <polygon style="fill: none; fill-opacity:0; stroke-width: 2; stroke: #000000" points="936.762,371.352 932.088,381.509 930.911,376.044 925.833,373.707 "/>
  </g>
  <g>
    <line style="fill: none; fill-opacity:0; stroke-width: 2; stroke: #000000" x1="959.801" y1="475.591" x2="959.783" y2="379.69"/>
    <polygon style="fill: #000000" points="959.782,372.19 964.784,382.189 959.783,379.69 954.784,382.19 "/>
    <polygon style="fill: none; fill-opacity:0; stroke-width: 2; stroke: #000000" points="959.782,372.19 964.784,382.189 959.783,379.69 954.784,382.19 "/>
  </g>
  <g>
    <line style="fill: none; fill-opacity:0; stroke-width: 2; stroke: #000000" x1="1045.71" y1="422.736" x2="988.599" y2="376.111"/>
    <polygon style="fill: #000000" points="982.789,371.368 993.697,373.819 988.599,376.111 987.373,381.565 "/>
    <polygon style="fill: none; fill-opacity:0; stroke-width: 2; stroke: #000000" points="982.789,371.368 993.697,373.819 988.599,376.111 987.373,381.565 "/>
  </g>
  <g>
    <line style="fill: none; fill-opacity:0; stroke-width: 2; stroke: #000000" x1="1007.39" y1="267.406" x2="1094.96" y2="311.464"/>
    <polygon style="fill: #000000" points="1101.65,314.835 1090.47,314.807 1094.96,311.464 1094.97,305.874 "/>
    <polygon style="fill: none; fill-opacity:0; stroke-width: 2; stroke: #000000" points="1101.65,314.835 1090.47,314.807 1094.96,311.464 1094.97,305.874 "/>
  </g>
  <g>
    <path style="fill: #ffffff" d="M 1202.69 285.139 L 1292.09,285.139 C 1304.43,285.139 1314.44,290.063 1314.44,296.139 C 1314.44,302.214 1304.43,307.139 1292.09,307.139 L 1202.69,307.139 C 1190.34,307.139 1180.34,302.214 1180.34,296.139 C 1180.34,290.063 1190.34,285.139 1202.69,285.139z"/>
    <path style="fill: none; fill-opacity:0; stroke-width: 2; stroke: #000000" d="M 1202.69 285.139 L 1292.09,285.139 C 1304.43,285.139 1314.44,290.063 1314.44,296.139 C 1314.44,302.214 1304.43,307.139 1292.09,307.139 L 1202.69,307.139 C 1190.34,307.139 1180.34,302.214 1180.34,296.139 C 1180.34,290.063 1190.34,285.139 1202.69,285.139"/>
    <text font-size="12.7998" style="fill: #000000;text-anchor:middle;font-family:sans-serif;font-style:normal;font-weight:normal" x="1247.39" y="301.139">
      <tspan x="1247.39" y="301.139">Manual de Uso</tspan>
    </text>
  </g>
  <g>
    <path style="fill: #ffffff" d="M 1232.01 322.185 L 1361.61,322.185 C 1379.51,322.185 1394.01,327.11 1394.01,333.185 C 1394.01,339.26 1379.51,344.185 1361.61,344.185 L 1232.01,344.185 C 1214.12,344.185 1199.61,339.26 1199.61,333.185 C 1199.61,327.11 1214.12,322.185 1232.01,322.185z"/>
    <path style="fill: none; fill-opacity:0; stroke-width: 2; stroke: #000000" d="M 1232.01 322.185 L 1361.61,322.185 C 1379.51,322.185 1394.01,327.11 1394.01,333.185 C 1394.01,339.26 1379.51,344.185 1361.61,344.185 L 1232.01,344.185 C 1214.12,344.185 1199.61,339.26 1199.61,333.185 C 1199.61,327.11 1214.12,322.185 1232.01,322.185"/>
    <text font-size="12.7998" style="fill: #000000;text-anchor:middle;font-family:sans-serif;font-style:normal;font-weight:normal" x="1296.81" y="338.185">
      <tspan x="1296.81" y="338.185">Manual de Instalación</tspan>
    </text>
  </g>
  <g>
    <path style="fill: #ffffff" d="M 1194.97 364.001 L 1251.32,364.001 C 1259.1,364.001 1265.41,369.442 1265.41,376.155 C 1265.41,382.868 1259.1,388.31 1251.32,388.31 L 1194.97,388.31 C 1187.19,388.31 1180.88,382.868 1180.88,376.155 C 1180.88,369.442 1187.19,364.001 1194.97,364.001z"/>
    <path style="fill: none; fill-opacity:0; stroke-width: 2; stroke: #000000" d="M 1194.97 364.001 L 1251.32,364.001 C 1259.1,364.001 1265.41,369.442 1265.41,376.155 C 1265.41,382.868 1259.1,388.31 1251.32,388.31 L 1194.97,388.31 C 1187.19,388.31 1180.88,382.868 1180.88,376.155 C 1180.88,369.442 1187.19,364.001 1194.97,364.001"/>
    <text font-size="12.7998" style="fill: #000000;text-anchor:middle;font-family:sans-serif;font-style:normal;font-weight:normal" x="1223.15" y="381.155">
      <tspan x="1223.15" y="381.155">Licencias</tspan>
    </text>
  </g>
  <g>
    <line style="fill: none; fill-opacity:0; stroke-width: 2; stroke: #000000" x1="1186.88" y1="303.917" x2="1155.55" y2="313.101"/>
    <polygon style="fill: #000000" points="1148.35,315.211 1156.54,307.6 1155.55,313.101 1159.35,317.196 "/>
    <polygon style="fill: none; fill-opacity:0; stroke-width: 2; stroke: #000000" points="1148.35,315.211 1156.54,307.6 1155.55,313.101 1159.35,317.196 "/>
  </g>
  <g>
    <line style="fill: none; fill-opacity:0; stroke-width: 2; stroke: #000000" x1="1199.61" y1="333.185" x2="1172.95" y2="334.398"/>
    <polygon style="fill: #000000" points="1165.46,334.738 1175.22,329.289 1172.95,334.398 1175.67,339.279 "/>
    <polygon style="fill: none; fill-opacity:0; stroke-width: 2; stroke: #000000" points="1165.46,334.738 1175.22,329.289 1172.95,334.398 1175.67,339.279 "/>
  </g>
  <g>
    <line style="fill: none; fill-opacity:0; stroke-width: 2; stroke: #000000" x1="1185.01" y1="367.561" x2="1155.38" y2="357.085"/>
    <polygon style="fill: #000000" points="1148.31,354.585 1159.41,353.205 1155.38,357.085 1156.07,362.633 "/>
    <polygon style="fill: none; fill-opacity:0; stroke-width: 2; stroke: #000000" points="1148.31,354.585 1159.41,353.205 1155.38,357.085 1156.07,362.633 "/>
  </g>
</svg>
